<?xml version="1.0" encoding="utf-8"?>
<!-- Generator: Adobe Illustrator 25.0.0, SVG Export Plug-In . SVG Version: 6.00 Build 0)  -->
<svg version="1.1" id="Ebene_1" xmlns="http://www.w3.org/2000/svg" xmlns:xlink="http://www.w3.org/1999/xlink" x="0px" y="0px"
	 viewBox="0 0 144.52 91.61" style="enable-background:new 0 0 144.52 91.61;" xml:space="preserve">
<style type="text/css">
	.st0{fill:#263F62;}
	.st1{fill:#EFEFF1;}
	.st2{fill:#65C8C7;}
</style>
<path class="st0" d="M118.09,77.05c5.75,0.38,11.11-0.74,16.37,0.47c1.51,0.35,3.94,0.26,3.78,2.37c-0.14,1.8-2.46,1.25-3.79,1.34
	c-4.81,0.33-9.64,0.63-14.46,0.58c-33.14-0.34-66.28-0.43-99.42,0.01c-2.99,0.04-6.04,0.14-8.97-0.38c-1.64-0.29-4.79,0.8-4.73-1.96
	c0.05-2.68,2.95-2.01,4.85-2.04c3.83-0.07,7.66,0,11.49-0.03c1.29-0.01,2.58-0.14,4.15-0.24c-1.9-5.28-3.87-9.19-10.69-8.33
	c-5.89,0.75-9.74-5.2-6.78-10.33c2.36-4.08,2.22-8.16,2.56-12.44c1.29-16.55,9.63-28.64,23.99-36.61c2.11-1.17,4.74-1.73,7.17-1.91
	c11.95-0.89,23.96-1.4,35.85,0.31c7.86,1.13,13.56,6.42,17.92,12.63c5.41,7.71,12.66,11.76,21.59,13.96
	c9.57,2.35,12.26,5.92,13.19,15.66c0.23,2.36,0.75,4.41,2.08,6.49c3.83,6.01,1.38,12.1-5.61,12.02
	C122.23,68.56,120.15,71.85,118.09,77.05z M125.48,64.79c2.11-0.18,4.35-0.09,5.89-1.97c0.94-1.14,0.47-2.55-0.41-3.12
	c-2.91-1.89-2.49-4.8-2.74-7.55c-0.86-9.32-2.91-12.02-11.79-14.08c-8.94-2.07-16.48-5.96-21.45-14.01
	c-1.04-1.68-2.46-3.15-3.86-4.57c-3.92-3.99-8.33-7.11-14.13-7.75c-10.62-1.18-21.24-0.75-31.87-0.11
	c-6.58,0.4-11.73,3.4-15.98,8.16C21.98,27.81,16.92,36.67,17,47.93c0.03,4.29,0.8,9.05-3.08,12.55c-1.14,1.03-0.46,2.15,0.39,3.04
	c2.53,2.65,8.89,1.3,10.17-2.19c1.35-3.69,3.13-6.88,7.09-8.47c8.75-3.51,15.88-0.81,20.22,7.92c0.87,1.75,1.19,3.73,3.93,3.73
	c11.14,0.01,22.28,0.79,33.42-0.12c2.01-0.16,3.17-0.69,3.97-2.84c2.44-6.58,7.44-10.45,14.43-10.23
	c6.73,0.21,11.58,4.1,13.59,10.65C121.91,64.53,123.24,65.04,125.48,64.79z M49.55,77.01c0.96,0.82,2.18,0.43,3.29,0.43
	c12.98,0.03,25.96,0.06,38.94-0.04c1.3-0.01,4.35,0.78,3.37-1.81c-1.16-3.07-2.13-6.93-7.28-6.69c-8.64,0.41-17.33,0.52-25.95-0.02
	C55.54,68.48,50.89,69.61,49.55,77.01z M37.88,55.88c-5.59-0.05-10.07,4.37-10.23,10.1c-0.15,5.63,4.61,10.37,10.47,10.42
	c5.43,0.05,10.11-4.63,10.21-10.19C48.43,60.41,43.91,55.94,37.88,55.88z M117.41,65.89c-0.07-5.94-4.68-10.4-10.58-10.23
	c-5.62,0.16-10.2,4.74-10.25,10.24c-0.04,5.77,4.66,10.45,10.5,10.45C113.07,76.35,117.48,71.88,117.41,65.89z"/>
<path class="st1" d="M125.48,64.79c-2.25,0.25-3.57-0.27-4.36-2.83c-2.01-6.55-6.86-10.44-13.59-10.65
	c-6.98-0.22-11.99,3.66-14.43,10.23c-0.8,2.15-1.95,2.68-3.97,2.84C78,65.29,66.86,64.52,55.72,64.51c-2.75,0-3.06-1.98-3.93-3.73
	c-4.34-8.73-11.47-11.43-20.22-7.92c-3.96,1.59-5.73,4.78-7.09,8.47c-1.28,3.49-7.64,4.84-10.17,2.19
	c-0.85-0.89-1.53-2.01-0.39-3.04c3.88-3.5,3.11-8.25,3.08-12.55c-0.08-11.26,4.98-20.12,12.14-28.14c4.25-4.76,9.4-7.76,15.98-8.16
	c10.63-0.64,21.25-1.07,31.87,0.11c5.8,0.65,10.21,3.76,14.13,7.75c1.39,1.42,2.82,2.89,3.86,4.57
	c4.98,8.06,12.51,11.94,21.45,14.01c8.88,2.06,10.93,4.76,11.79,14.08c0.25,2.76-0.17,5.66,2.74,7.55c0.88,0.57,1.35,1.98,0.41,3.12
	C129.83,64.71,127.59,64.62,125.48,64.79z M61.46,35.55c9.99,0,19.99-0.01,29.98,0.01c3,0.01,5.4-0.98,3.75-4.32
	c-3.54-7.14-8.21-13.57-16.61-15.26c-10.18-2.05-20.55-1.22-30.88-1.15c-9.78,0.07-15.78,5.26-19.64,13.54
	c-2.47,5.3-1.31,7.09,4.42,7.16C42.14,35.64,51.8,35.57,61.46,35.55z"/>
<path class="st1" d="M37.88,55.88c6.03,0.06,10.56,4.52,10.46,10.32c-0.1,5.56-4.78,10.24-10.21,10.19
	c-5.87-0.05-10.63-4.78-10.47-10.42C27.8,60.25,32.28,55.83,37.88,55.88z M37.92,59.53c-3.56-0.03-6.72,3.13-6.49,6.77
	c0.25,3.86,2.6,6.1,6.34,6.46c3.4,0.33,6.7-3.12,6.77-6.6C44.62,62.54,41.64,59.56,37.92,59.53z"/>
<path class="st1" d="M117.41,65.89c0.07,5.99-4.34,10.46-10.33,10.46c-5.85,0-10.55-4.68-10.5-10.45
	c0.04-5.5,4.63-10.08,10.25-10.24C112.72,55.49,117.34,59.95,117.41,65.89z M107.5,72.43c3.21-0.27,5.65-2.06,6-6.02
	c0.33-3.81-2.3-6.92-5.96-7.25c-3.32-0.3-6.9,2.88-7.11,6.3C100.22,68.84,103.29,72.13,107.5,72.43z"/>
<path class="st0" d="M61.46,35.56c-9.66,0.01-19.32,0.08-28.98-0.02c-5.73-0.06-6.88-1.85-4.42-7.16
	c3.85-8.29,9.85-13.48,19.64-13.54c10.32-0.07,20.69-0.9,30.88,1.15c8.4,1.69,13.07,8.12,16.61,15.26c1.65,3.33-0.75,4.32-3.75,4.32
	C81.45,35.54,71.46,35.55,61.46,35.56z M90.21,30.87c-4.75-8.56-11.73-12.1-20.95-12.03c-9.14,0.07-9.01-0.07-8.67,9.11
	c0.1,2.79,1.21,3.29,3.59,3.21C72.63,30.85,81.09,31.96,90.21,30.87z M31.58,31.13c5.79,0,11.07,0,16.35,0
	c8.75,0,9.91-1.47,8.39-10.15c-0.26-1.46-0.79-1.78-2.15-1.98C43.7,17.41,36.45,21.09,31.58,31.13z"/>
<path class="st0" d="M37.92,59.53c3.72,0.03,6.7,3.01,6.63,6.63c-0.07,3.48-3.37,6.93-6.77,6.6c-3.74-0.36-6.09-2.6-6.34-6.46
	C31.2,62.66,34.36,59.5,37.92,59.53z M40.23,66c-0.06-1.21-0.69-1.88-1.81-1.97c-1.41-0.11-2.15,0.67-2.18,2.02
	c-0.02,1.1,0.52,1.91,1.72,1.93C39.29,68.02,40.06,67.3,40.23,66z"/>
<path class="st0" d="M107.5,72.43c-4.21-0.3-7.28-3.58-7.07-6.97c0.21-3.43,3.79-6.6,7.11-6.3c3.66,0.33,6.29,3.43,5.96,7.25
	C113.16,70.37,110.71,72.16,107.5,72.43z M107.16,68.03c1.26-0.15,2.09-0.84,2.05-2.24c-0.04-1.42-0.95-2.07-2.29-2.02
	c-1.16,0.05-1.81,0.79-1.81,1.94C105.11,66.99,105.56,67.98,107.16,68.03z"/>
<path class="st2" d="M90.21,30.87c-9.12,1.1-17.58-0.02-26.03,0.28c-2.38,0.09-3.49-0.42-3.59-3.21c-0.34-9.18-0.47-9.04,8.67-9.11
	C78.48,18.76,85.46,22.3,90.21,30.87z"/>
<path class="st2" d="M31.58,31.13c4.87-10.04,12.13-13.72,22.59-12.14c1.36,0.21,1.89,0.52,2.15,1.98
	c1.52,8.68,0.36,10.15-8.39,10.15C42.65,31.13,37.37,31.13,31.58,31.13z"/>
<path class="st1" d="M40.23,66c-0.16,1.3-0.94,2.02-2.28,1.99c-1.2-0.02-1.75-0.83-1.72-1.93c0.03-1.36,0.78-2.13,2.18-2.02
	C39.54,64.12,40.17,64.79,40.23,66z"/>
<path class="st1" d="M107.16,68.03c-1.61-0.04-2.05-1.04-2.05-2.32c0-1.15,0.64-1.89,1.81-1.94c1.34-0.06,2.25,0.6,2.29,2.02
	C109.26,67.19,108.42,67.87,107.16,68.03z"/>
</svg>
