<?xml version="1.0" encoding="utf-8"?>
<!-- Generator: Adobe Illustrator 25.0.0, SVG Export Plug-In . SVG Version: 6.00 Build 0)  -->
<svg version="1.1" id="Ebene_1" xmlns="http://www.w3.org/2000/svg" xmlns:xlink="http://www.w3.org/1999/xlink" x="0px" y="0px"
	 viewBox="0 0 165.81 118.71" style="enable-background:new 0 0 165.81 118.71;" xml:space="preserve">
<style type="text/css">
	.st0{fill:#263F62;}
	.st1{fill:#65C8C7;}
	.st2{fill:#EFEFF1;}
</style>
<path class="st0" d="M18.44,89.42c-1.68-3.8-3.58-7.52-4.98-11.42c-2.13-5.91-0.51-9.06,5.57-9.17c4.8-0.09,6.49-2.47,8.25-6.11
	c4.55-9.44,9.39-18.73,14.08-28.09c1.76-3.51,4.07-5.94,8.45-5.63c3.41,0.24,4.09-1.41,3.05-4.61c-1.27-3.94-2.76-7.86-3.02-12.07
	c-0.22-3.59,1.21-5.69,5.01-5.99c6.29-0.49,11.95,0.07,15,6.85c1.77,3.93,4.11,7.6,5.9,11.53c0.99,2.16,2.23,3.25,4.56,2.64
	c14.33-3.7,25,2.9,33.95,12.83c7.25,8.04,15.47,11.13,26.03,8.65c2.85-0.67,5.99-0.44,8.96-0.21c5.33,0.42,6.43,2.45,3.99,7.16
	c-2.92,5.65-7.33,10.29-10.74,15.59c-3.4,5.3-8.59,9.42-10.44,15.73c0,0,0.15,0.07,0.15,0.07c-1.48-0.95-1.66,0.36-2.09,1.21
	c-2.13,1.39-4.37,2.36-7,1.86c8.89-12.1,17.78-24.2,27.11-36.89c-4.61,0-8.41-0.18-12.19,0.03c-18.4,1.05-36.96,1.14-54.39,8.53
	c-6.29,2.67-12.71,4.8-19.59,5.54c-14.38,1.56-28.74,3.39-43.11,5.07c-2.66,0.31-5.15,0.38-3.27,4.29c1.8,3.74,3.22,7.66,4.81,11.49
	C21.37,89.53,19.87,89.34,18.44,89.42z M99.8,34.29c-1.69-3.06-4.3-3.11-6.98-3.09c-14.65,0.08-29.25,1.26-43.87,2.01
	c-2.31,0.12-3.1,1.32-3.93,3.04c-4.23,8.84-8.54,17.65-12.76,26.5c-0.65,1.37-1.69,2.69-1.46,4.67c3.38-0.39,6.5-0.76,9.62-1.11
	c15.71-1.78,31.33-3.83,46.12-9.98c7.24-3.01,14.92-4.57,22.78-5.13c2.81-0.2,5.59-0.77,8.6-1.2c-1.75-2.58-3.75-3.08-6.3-3.01
	c-8.65,0.25-17.3,0.16-25.95,0.41c-3.94,0.11-5.34-2.21-5.84-5.41c-0.52-3.38,0.67-5.7,4.39-6.54C89.3,34.31,94.44,34.63,99.8,34.29
	z M71.69,27.01c-1.6-4.83-4.52-8.5-6.48-12.65c-2.01-4.26-5.65-3.95-9.29-3.99c-1.23-0.01-1.89,0.49-1.56,1.78
	c1.36,5.27,1.67,11.27,4.56,15.5c1.58,2.32,7.46-0.25,11.42-0.19C70.64,27.47,70.96,27.26,71.69,27.01z M110.08,43.3
	c-2.39-3.43-4.28-4.88-7.05-4.76c-5.3,0.23-10.59,0.47-15.89,0.75c-1.27,0.07-2.97-0.08-2.88,1.85c0.09,1.96,1.68,2.17,3.28,2.17
	C94.62,43.3,101.72,43.3,110.08,43.3z"/>
<path class="st1" d="M55.81,99.15c-14.28-0.32-26.68,3.5-39.06,7.38c-1.43,0.45-2.83,0.96-4.26,1.41c-1.02,0.32-2,0.32-2.52-0.85
	c-0.49-1.09-0.01-2.03,0.83-2.61c1.22-0.85,2.5-1.74,3.89-2.18c13.48-4.3,26.99-8.33,41.4-7.9c9.9,0.29,19.45,2.41,28.84,5.23
	c18.48,5.55,36.43,3.34,54.19-3.09c1.09-0.4,2.15-0.93,3.27-1.22c1.77-0.47,4.21-2.45,5.19-0.01c0.8,1.99-1.92,3.29-3.64,4.06
	c-14.07,6.28-28.69,8.99-44.18,7.54c-11.51-1.07-22.23-5.47-33.59-7.08C62.33,99.29,58.53,99.33,55.81,99.15z"/>
<path class="st1" d="M18.44,89.42c1.43-0.08,2.92,0.11,4.05-1.09c1.15-0.12,2.35-0.06,3.43-0.4c18.57-5.77,36.98-5.54,55.73-0.14
	c13.47,3.88,27.35,6.89,41.48,2.46c2.63,0.5,4.87-0.47,7-1.86c0.9-0.06,1.9,0.06,2.09-1.21c0,0-0.15-0.07-0.15-0.07
	c3.86-0.12,7.24-2,10.82-3.11c2.06-0.64,4.19-0.51,4.8,1.08c0.79,2.04-1.84,2.46-3.19,3.03c-21.01,8.86-42.51,10.87-64.49,4.06
	C59,85.66,38.43,87.72,18.03,94.78c-2.6,0.9-5.22,2.28-8.33,0.88C10.8,90.94,15.78,91.75,18.44,89.42z"/>
<path class="st2" d="M123.12,90.25c-14.13,4.43-28.01,1.42-41.48-2.46c-18.75-5.4-37.16-5.63-55.73,0.14
	c-1.08,0.34-2.28,0.27-3.43,0.4c-1.59-3.84-3.01-7.76-4.81-11.49c-1.88-3.91,0.61-3.98,3.27-4.29c14.37-1.68,28.73-3.51,43.11-5.07
	c6.88-0.75,13.31-2.88,19.59-5.54c17.42-7.39,35.98-7.48,54.39-8.53c3.78-0.22,7.58-0.03,12.19-0.03
	C140.91,66.04,132.01,78.15,123.12,90.25z M123.53,59.89c-3.58-0.32-6.85,2.55-7.04,6.18c-0.18,3.43,2.95,7.08,6.4,6.96
	c3.71-0.13,6.28-1.99,6.66-6C129.9,63.27,127.29,60.22,123.53,59.89z"/>
<path class="st2" d="M99.8,34.29c-5.36,0.34-10.5,0.02-15.56,1.16c-3.73,0.84-4.91,3.16-4.39,6.54c0.49,3.21,1.9,5.53,5.84,5.41
	c8.65-0.25,17.3-0.16,25.95-0.41c2.55-0.07,4.55,0.43,6.3,3.01c-3.01,0.43-5.79,1-8.6,1.2c-7.86,0.56-15.54,2.12-22.78,5.13
	c-14.79,6.15-30.41,8.2-46.12,9.98c-3.12,0.35-6.24,0.72-9.62,1.11c-0.23-1.98,0.81-3.31,1.46-4.67c4.22-8.85,8.53-17.66,12.76-26.5
	c0.82-1.72,1.61-2.92,3.93-3.04c14.62-0.75,29.22-1.93,43.87-2.01C95.5,31.18,98.12,31.23,99.8,34.29z M60.95,48.34
	c0,0.08,0,0.17,0,0.25c2.82-0.13,5.66-0.12,8.45-0.43c3.86-0.43,4.32-3.72,4.85-6.6c0.56-3.06-1.38-4.59-4.13-5.18
	c-6.14-1.32-12.25-0.44-18.25,0.73c-3.51,0.69-4.41,3.88-4.16,7.03c0.24,2.98,2.47,4.14,5.27,4.19
	C55.64,48.38,58.3,48.34,60.95,48.34z"/>
<path class="st2" d="M71.69,27.01c-0.73,0.25-1.05,0.46-1.36,0.45c-3.96-0.06-9.84,2.51-11.42,0.19c-2.89-4.23-3.2-10.23-4.56-15.5
	c-0.33-1.29,0.33-1.79,1.56-1.78c3.65,0.04,7.28-0.28,9.29,3.99C67.17,18.51,70.09,22.18,71.69,27.01z"/>
<path class="st2" d="M110.08,43.3c-8.36,0-15.45,0-22.55,0c-1.6,0-3.19-0.21-3.28-2.17c-0.08-1.93,1.61-1.78,2.88-1.85
	c5.29-0.28,10.59-0.52,15.89-0.75C105.8,38.42,107.68,39.87,110.08,43.3z"/>
<path class="st2" d="M132.22,87.17c-0.2,1.27-1.19,1.16-2.09,1.21C130.56,87.54,130.73,86.22,132.22,87.17z"/>
<path class="st0" d="M123.53,59.89c3.75,0.33,6.37,3.39,6.02,7.14c-0.37,4.01-2.95,5.87-6.66,6c-3.45,0.12-6.59-3.53-6.4-6.96
	C116.69,62.44,119.96,59.57,123.53,59.89z M125.29,66.62c-0.03-1.31-0.68-2.14-1.99-2.32c-1.41-0.2-2.12,0.58-2.24,1.91
	c-0.12,1.36,0.57,2.17,1.91,2.29C124.28,68.61,125.14,68.02,125.29,66.62z"/>
<path class="st0" d="M60.95,48.34c-2.66,0-5.31,0.04-7.97-0.01c-2.8-0.05-5.03-1.2-5.27-4.19c-0.25-3.15,0.65-6.34,4.16-7.03
	c6-1.18,12.12-2.05,18.25-0.73c2.75,0.59,4.69,2.12,4.13,5.18c-0.53,2.88-0.99,6.17-4.85,6.6c-2.8,0.32-5.64,0.3-8.45,0.43
	C60.96,48.51,60.95,48.43,60.95,48.34z M59.62,44.34c2.69-0.21,5.17-0.4,7.64-0.6c1.33-0.11,2.2-0.74,2.09-2.18
	c-0.11-1.39-1.24-1.34-2.21-1.34c-2.31,0.01-4.65-0.11-6.93,0.2c-2.73,0.37-7.25-0.67-7.32,2.75
	C52.85,45.48,57.43,43.63,59.62,44.34z"/>
<path class="st2" d="M125.29,66.63c-0.15,1.4-1.01,1.98-2.32,1.87c-1.34-0.11-2.03-0.93-1.91-2.29c0.12-1.33,0.83-2.1,2.24-1.91
	C124.61,64.48,125.26,65.31,125.29,66.63z"/>
<path class="st2" d="M59.62,44.34c-2.2-0.71-6.78,1.14-6.74-1.17c0.06-3.41,4.59-2.38,7.32-2.75c2.28-0.31,4.62-0.18,6.93-0.2
	c0.97-0.01,2.1-0.05,2.21,1.34c0.11,1.44-0.75,2.07-2.09,2.18C64.79,43.94,62.32,44.13,59.62,44.34z"/>
</svg>
