<?xml version="1.0" encoding="utf-8"?>
<!-- Generator: Adobe Illustrator 25.0.0, SVG Export Plug-In . SVG Version: 6.00 Build 0)  -->
<svg version="1.1" id="Ebene_1" xmlns="http://www.w3.org/2000/svg" xmlns:xlink="http://www.w3.org/1999/xlink" x="0px" y="0px"
	 viewBox="0 0 165.81 118.71" style="enable-background:new 0 0 165.81 118.71;" xml:space="preserve">
<style type="text/css">
	.st0{display:none;}
	.st1{display:inline;fill:#263F62;}
	.st2{display:inline;fill:#65C8C7;}
	.st3{display:inline;fill:#EFEFF1;}
	.st4{fill:#263F62;}
	.st5{fill:#EFEFF1;}
	.st6{fill:#65C8C7;}
</style>
<g class="st0">
	<path class="st1" d="M-167.36,89.42c-1.68-3.8-3.58-7.52-4.98-11.42c-2.13-5.91-0.51-9.06,5.57-9.17c4.8-0.09,6.49-2.47,8.25-6.11
		c4.55-9.44,9.39-18.73,14.08-28.09c1.76-3.51,4.07-5.94,8.45-5.63c3.41,0.24,4.09-1.41,3.05-4.61c-1.27-3.94-2.76-7.86-3.02-12.07
		c-0.22-3.59,1.21-5.69,5.01-5.99c6.29-0.49,11.95,0.07,15,6.85c1.77,3.93,4.11,7.6,5.9,11.53c0.99,2.16,2.23,3.25,4.56,2.64
		c14.33-3.7,25,2.9,33.95,12.83c7.25,8.04,15.47,11.13,26.03,8.65c2.85-0.67,5.99-0.44,8.96-0.21c5.33,0.42,6.43,2.45,3.99,7.16
		c-2.92,5.65-7.33,10.29-10.74,15.59c-3.4,5.3-8.59,9.42-10.44,15.73c0,0,0.15,0.07,0.15,0.07c-1.48-0.95-1.66,0.36-2.09,1.21
		c-2.13,1.39-4.37,2.36-7,1.86c8.89-12.1,17.78-24.2,27.11-36.89c-4.61,0-8.41-0.18-12.19,0.03c-18.4,1.05-36.96,1.14-54.39,8.53
		c-6.29,2.67-12.71,4.8-19.59,5.54c-14.38,1.56-28.74,3.39-43.11,5.07c-2.66,0.31-5.15,0.38-3.27,4.29
		c1.8,3.74,3.22,7.66,4.81,11.49C-164.44,89.53-165.94,89.34-167.36,89.42z M-86,34.29c-1.69-3.06-4.3-3.11-6.98-3.09
		c-14.65,0.08-29.25,1.26-43.87,2.01c-2.31,0.12-3.1,1.32-3.93,3.04c-4.23,8.84-8.54,17.65-12.76,26.5
		c-0.65,1.37-1.69,2.69-1.46,4.67c3.38-0.39,6.5-0.76,9.62-1.11c15.71-1.78,31.33-3.83,46.12-9.98c7.24-3.01,14.92-4.57,22.78-5.13
		c2.81-0.2,5.59-0.77,8.6-1.2c-1.75-2.58-3.75-3.08-6.3-3.01c-8.65,0.25-17.3,0.16-25.95,0.41c-3.94,0.11-5.34-2.21-5.84-5.41
		c-0.52-3.38,0.67-5.7,4.39-6.54C-96.51,34.31-91.37,34.63-86,34.29z M-114.12,27.01c-1.6-4.83-4.52-8.5-6.48-12.65
		c-2.01-4.26-5.65-3.95-9.29-3.99c-1.23-0.01-1.89,0.49-1.56,1.78c1.36,5.27,1.67,11.27,4.56,15.5c1.58,2.32,7.46-0.25,11.42-0.19
		C-115.16,27.47-114.85,27.26-114.12,27.01z M-75.73,43.3c-2.39-3.43-4.28-4.88-7.05-4.76c-5.3,0.23-10.59,0.47-15.89,0.75
		c-1.27,0.07-2.97-0.08-2.88,1.85c0.09,1.96,1.68,2.17,3.28,2.17C-91.18,43.3-84.09,43.3-75.73,43.3z"/>
	<path class="st2" d="M-130,99.15c-14.28-0.32-26.68,3.5-39.06,7.38c-1.43,0.45-2.83,0.96-4.26,1.41c-1.02,0.32-2,0.32-2.52-0.85
		c-0.49-1.09-0.01-2.03,0.83-2.61c1.22-0.85,2.5-1.74,3.89-2.18c13.48-4.3,26.99-8.33,41.4-7.9c9.9,0.29,19.45,2.41,28.84,5.23
		c18.48,5.55,36.43,3.34,54.19-3.09c1.09-0.4,2.15-0.93,3.27-1.22c1.77-0.47,4.21-2.45,5.19-0.01c0.8,1.99-1.92,3.29-3.64,4.06
		c-14.07,6.28-28.69,8.99-44.18,7.54c-11.51-1.07-22.23-5.47-33.59-7.08C-123.48,99.29-127.28,99.33-130,99.15z"/>
	<path class="st2" d="M-167.36,89.42c1.43-0.08,2.92,0.11,4.05-1.09c1.15-0.12,2.35-0.06,3.43-0.4c18.57-5.77,36.98-5.54,55.73-0.14
		c13.47,3.88,27.35,6.89,41.48,2.46c2.63,0.5,4.87-0.47,7-1.86c0.9-0.06,1.9,0.06,2.09-1.21c0,0-0.15-0.07-0.15-0.07
		c3.86-0.12,7.24-2,10.82-3.11c2.06-0.64,4.19-0.51,4.8,1.08c0.79,2.04-1.84,2.46-3.19,3.03c-21.01,8.86-42.51,10.87-64.49,4.06
		c-21.01-6.51-41.58-4.44-61.99,2.62c-2.6,0.9-5.22,2.28-8.33,0.88C-175.01,90.94-170.03,91.75-167.36,89.42z"/>
	<path class="st3" d="M-62.68,90.25c-14.13,4.43-28.01,1.42-41.48-2.46c-18.75-5.4-37.16-5.63-55.73,0.14
		c-1.08,0.34-2.28,0.27-3.43,0.4c-1.59-3.84-3.01-7.76-4.81-11.49c-1.88-3.91,0.61-3.98,3.27-4.29c14.37-1.68,28.73-3.51,43.11-5.07
		c6.88-0.75,13.31-2.88,19.59-5.54c17.42-7.39,35.98-7.48,54.39-8.53c3.78-0.22,7.58-0.03,12.19-0.03
		C-44.9,66.04-53.79,78.15-62.68,90.25z M-62.27,59.89c-3.58-0.32-6.85,2.55-7.04,6.18c-0.18,3.43,2.95,7.08,6.4,6.96
		c3.71-0.13,6.28-1.99,6.66-6C-55.91,63.27-58.52,60.22-62.27,59.89z"/>
	<path class="st3" d="M-86,34.29c-5.36,0.34-10.5,0.02-15.56,1.16c-3.73,0.84-4.91,3.16-4.39,6.54c0.49,3.21,1.9,5.53,5.84,5.41
		c8.65-0.25,17.3-0.16,25.95-0.41c2.55-0.07,4.55,0.43,6.3,3.01c-3.01,0.43-5.79,1-8.6,1.2c-7.86,0.56-15.54,2.12-22.78,5.13
		c-14.79,6.15-30.41,8.2-46.12,9.98c-3.12,0.35-6.24,0.72-9.62,1.11c-0.23-1.98,0.81-3.31,1.46-4.67
		c4.22-8.85,8.53-17.66,12.76-26.5c0.82-1.72,1.61-2.92,3.93-3.04c14.62-0.75,29.22-1.93,43.87-2.01
		C-90.3,31.18-87.69,31.23-86,34.29z M-124.85,48.34c0,0.08,0,0.17,0,0.25c2.82-0.13,5.66-0.12,8.45-0.43
		c3.86-0.43,4.32-3.72,4.85-6.6c0.56-3.06-1.38-4.59-4.13-5.18c-6.14-1.32-12.25-0.44-18.25,0.73c-3.51,0.69-4.41,3.88-4.16,7.03
		c0.24,2.98,2.47,4.14,5.27,4.19C-130.17,48.38-127.51,48.34-124.85,48.34z"/>
	<path class="st3" d="M-114.12,27.01c-0.73,0.25-1.05,0.46-1.36,0.45c-3.96-0.06-9.84,2.51-11.42,0.19
		c-2.89-4.23-3.2-10.23-4.56-15.5c-0.33-1.29,0.33-1.79,1.56-1.78c3.65,0.04,7.28-0.28,9.29,3.99
		C-118.64,18.51-115.71,22.18-114.12,27.01z"/>
	<path class="st3" d="M-75.73,43.3c-8.36,0-15.45,0-22.55,0c-1.6,0-3.19-0.21-3.28-2.17c-0.08-1.93,1.61-1.78,2.88-1.85
		c5.29-0.28,10.59-0.52,15.89-0.75C-80.01,38.42-78.12,39.87-75.73,43.3z"/>
	<path class="st3" d="M-53.59,87.17c-0.2,1.27-1.19,1.16-2.09,1.21C-55.24,87.54-55.07,86.22-53.59,87.17z"/>
	<path class="st1" d="M-62.27,59.89c3.75,0.33,6.37,3.39,6.02,7.14c-0.37,4.01-2.95,5.87-6.66,6c-3.45,0.12-6.59-3.53-6.4-6.96
		C-69.12,62.44-65.85,59.57-62.27,59.89z M-60.52,66.62c-0.03-1.31-0.68-2.14-1.99-2.32c-1.41-0.2-2.12,0.58-2.24,1.91
		c-0.12,1.36,0.57,2.17,1.91,2.29C-61.53,68.61-60.67,68.02-60.52,66.62z"/>
	<path class="st1" d="M-124.85,48.34c-2.66,0-5.31,0.04-7.97-0.01c-2.8-0.05-5.03-1.2-5.27-4.19c-0.25-3.15,0.65-6.34,4.16-7.03
		c6-1.18,12.12-2.05,18.25-0.73c2.75,0.59,4.69,2.12,4.13,5.18c-0.53,2.88-0.99,6.17-4.85,6.6c-2.8,0.32-5.64,0.3-8.45,0.43
		C-124.85,48.51-124.85,48.43-124.85,48.34z M-126.18,44.34c2.69-0.21,5.17-0.4,7.64-0.6c1.33-0.11,2.2-0.74,2.09-2.18
		c-0.11-1.39-1.24-1.34-2.21-1.34c-2.31,0.01-4.65-0.11-6.93,0.2c-2.73,0.37-7.25-0.67-7.32,2.75
		C-132.96,45.48-128.38,43.63-126.18,44.34z"/>
	<path class="st3" d="M-60.52,66.63c-0.15,1.4-1.01,1.98-2.32,1.87c-1.34-0.11-2.03-0.93-1.91-2.29c0.12-1.33,0.83-2.1,2.24-1.91
		C-61.19,64.48-60.55,65.31-60.52,66.63z"/>
	<path class="st3" d="M-126.18,44.34c-2.2-0.71-6.78,1.14-6.74-1.17c0.06-3.41,4.59-2.38,7.32-2.75c2.28-0.31,4.62-0.18,6.93-0.2
		c0.97-0.01,2.1-0.05,2.21,1.34c0.11,1.44-0.75,2.07-2.09,2.18C-121.02,43.94-123.49,44.13-126.18,44.34z"/>
</g>
<g>
	<path class="st4" d="M120.07,44.81c0,2.77,0.17,5.54-0.03,8.29c-0.56,7.47,0.25,13.3,7.6,18.53c9.97,7.1,11.24,20.92,5.1,30.66
		c-6.83,10.83-18.58,15.22-29.75,11.02c-6.37-2.4-10.72-7.15-13.61-13.07c-1.35-2.76-2.76-3.76-5.86-3.7
		c-13.21,0.28-26.42,0.27-39.63,0.34c-1.99,0.01-4.01,0-5.98-0.27c-6.78-0.95-10.21-3.97-10.31-10.78
		c-0.3-21.04-0.83-42.09,0.57-63.11c0.34-5.14,4.21-8.11,11.3-8.62c3.31-0.24,4.86-0.88,4.72-4.62c-0.13-3.69,2.25-6.18,5.99-6.23
		c3.7-0.06,6.4,2.24,6.22,5.97c-0.22,4.54,2.04,4.69,5.5,4.62c8.44-0.18,16.9-0.12,25.34-0.03c2.57,0.03,4.22-0.05,4.24-3.52
		c0.03-3.83,2.03-6.98,6.45-6.82c4.39,0.15,6.11,3.16,5.87,7.21c-0.14,2.46,0.82,2.95,3.07,3.26c11.09,1.54,13.69,4.76,13.59,16.14
		c-0.04,4.91-0.01,9.83-0.01,14.74C120.34,44.81,120.21,44.81,120.07,44.81z M73.94,37.82c0-0.05,0-0.1,0-0.16
		c-12.91,0-25.81,0.06-38.72-0.05c-2.57-0.02-3.84,0.3-3.79,3.41c0.24,14.13,0.09,28.27,0.36,42.4c0.15,7.69,2.13,9.48,9.8,9.51
		c13.83,0.05,27.66-0.13,41.49-0.07c2.49,0.01,3.55-0.58,3.55-3.27c-0.04-15.24,13.72-25.87,26.29-25.05
		c2.44,0.16,3.17-0.69,3.11-3.1c-0.15-6.6-0.21-13.22,0.02-19.82c0.1-3.04-0.81-3.91-3.85-3.87C99.44,37.92,86.69,37.82,73.94,37.82
		z M90.75,89.19c-0.22,11.8,8.6,21.18,20.11,21.38c11.55,0.21,21.17-8.82,21.53-20.23c0.36-11.24-9.1-21.17-20.37-21.37
		C100.35,68.76,90.96,77.69,90.75,89.19z M73.53,33.92c0-0.04,0-0.08,0-0.11c12.74,0,25.48,0.02,38.22-0.02
		c1.31,0,3.43,0.62,3.77-0.79c0.87-3.58,1.05-7.46-0.27-10.88c-1.2-3.11-4.39-4-7.66-4.12c-2.17-0.07-3.85-0.01-3.86,3
		c-0.02,3.99-2.41,6.26-6.33,6.5c-4.23,0.26-5.52-2.88-5.91-6.24c-0.34-2.92-1.85-3.32-4.33-3.28c-8.9,0.15-17.81,0.22-26.71,0.11
		c-2.68-0.03-3.81,0.67-3.96,3.5c-0.2,3.87-2.95,5.56-6.48,5.91c-3.95,0.39-4.64-2.64-5.5-5.52c-0.4-1.35,0.13-3.14-1.82-3.88
		c-3.5-1.32-8.79,0.68-10.33,4.06c-0.92,2.02-0.46,4.24-0.74,6.35c-0.53,3.93,0.5,5.64,5.07,5.51
		C48.97,33.69,61.25,33.92,73.53,33.92z M47.62,14.89c0.17,2.39,0.24,4.38,0.47,6.35c0.18,1.56,1.15,2.51,2.77,2.49
		c1.55-0.02,1.37-1.4,1.56-2.37c0.79-3.94,0.7-7.89-0.02-11.84c-0.24-1.3-0.75-2.44-2.16-2.61c-1.79-0.21-1.79,1.36-1.98,2.47
		C47.93,11.33,47.79,13.31,47.62,14.89z M100.07,15.34c-0.17-2.08-0.29-4.21-0.54-6.32c-0.14-1.19-0.92-1.88-2.18-1.89
		c-0.8,0-1.53,0.18-1.73,1.1c-0.98,4.51-1.36,9.03-0.06,13.56c0.34,1.17,1.19,1.75,2.36,1.79c1.67,0.06,1.36-1.36,1.5-2.29
		C99.72,19.34,99.86,17.36,100.07,15.34z"/>
	<path class="st5" d="M73.94,37.82c12.75,0,25.51,0.09,38.26-0.07c3.04-0.04,3.95,0.83,3.85,3.87c-0.23,6.6-0.17,13.21-0.02,19.82
		c0.05,2.42-0.68,3.26-3.11,3.1c-12.57-0.82-26.33,9.8-26.29,25.05c0.01,2.69-1.05,3.28-3.55,3.27
		c-13.83-0.06-27.66,0.12-41.49,0.07c-7.67-0.03-9.65-1.82-9.8-9.51c-0.27-14.13-0.12-28.27-0.36-42.4
		c-0.05-3.11,1.22-3.43,3.79-3.41c12.91,0.1,25.81,0.05,38.72,0.05C73.94,37.72,73.94,37.77,73.94,37.82z M73.5,67.29
		c-7.88,0.09-8.6,0.95-8.48,10.28c0.07,6.1,2.24,7.99,9.1,7.93c7.57-0.06,8.62-1.37,8.47-10.54C82.47,68.6,80.82,67.21,73.5,67.29z
		 M57.7,76.04c0.12-7.5-0.96-8.64-8.27-8.75c-7.49-0.11-9.14,1.4-9.22,8.46c-0.09,7.56,1.43,9.4,7.84,9.49
		C56.63,85.36,57.57,84.46,57.7,76.04z M98.42,45c-7.99,0.02-8.65,0.73-8.59,9.14c0.05,7.02,1.37,8.36,8.29,8.41
		c7.84,0.06,9.41-1.68,9.36-10.35C107.45,46.41,105.65,44.98,98.42,45z M73.09,45c-7.44,0-8.21,0.88-8.22,9.45
		c-0.01,6.91,1.44,8.09,9.97,8.13c6.46,0.03,7.66-1.5,7.73-9.87C82.62,46.39,80.91,45,73.09,45z M57.74,53.86
		c-0.03-8.2-0.82-8.87-10.46-8.86c-6.31,0.01-7.11,1.07-7.03,9.27c0.07,6.9,1.86,8.32,10.43,8.31
		C56.25,62.57,57.77,60.7,57.74,53.86z"/>
	<path class="st6" d="M90.75,89.19c0.21-11.5,9.6-20.43,21.27-20.22c11.27,0.2,20.73,10.13,20.37,21.37
		c-0.37,11.4-9.98,20.44-21.53,20.23C99.35,110.37,90.53,100.99,90.75,89.19z M108.05,99.15c0.29-0.07,0.66-0.05,0.86-0.23
		c5.47-4.91,10.92-9.85,14.72-16.28c0.46-0.78,0.12-1.58-0.47-2.07c-0.95-0.79-1.7-0.05-2.35,0.6c-2.8,2.83-5.78,5.52-8.34,8.56
		c-2.94,3.5-5.57,5.64-8.86,0.47c-0.46-0.72-1.37-1.26-2.18-1.63c-1.5-0.69-2.37-0.14-2.28,1.58C99.23,91.62,106.56,99,108.05,99.15
		z"/>
	<path class="st6" d="M73.53,33.92c-12.28,0-24.57-0.23-36.84,0.12c-4.56,0.13-5.6-1.58-5.07-5.51c0.29-2.11-0.18-4.33,0.74-6.35
		c1.53-3.38,6.83-5.38,10.33-4.06c1.95,0.73,1.41,2.53,1.82,3.88c0.86,2.88,1.55,5.91,5.5,5.52c3.53-0.35,6.28-2.04,6.48-5.91
		c0.15-2.83,1.28-3.54,3.96-3.5c8.9,0.11,17.81,0.03,26.71-0.11c2.48-0.04,3.99,0.36,4.33,3.28c0.39,3.35,1.68,6.49,5.91,6.24
		c3.91-0.24,6.31-2.52,6.33-6.5c0.01-3.01,1.69-3.08,3.86-3c3.27,0.11,6.46,1.01,7.66,4.12c1.32,3.42,1.13,7.3,0.27,10.88
		c-0.34,1.42-2.45,0.79-3.77,0.79c-12.74,0.04-25.48,0.02-38.22,0.02C73.53,33.85,73.53,33.88,73.53,33.92z"/>
	<path class="st5" d="M47.62,14.89c0.18-1.58,0.31-3.56,0.65-5.5c0.19-1.11,0.19-2.68,1.98-2.47c1.41,0.17,1.93,1.31,2.16,2.61
		c0.72,3.95,0.81,7.9,0.02,11.84c-0.19,0.96-0.02,2.34-1.56,2.37c-1.62,0.02-2.58-0.93-2.77-2.49
		C47.86,19.27,47.79,17.28,47.62,14.89z"/>
	<path class="st5" d="M100.07,15.34c-0.21,2.03-0.35,4-0.65,5.96c-0.14,0.93,0.16,2.35-1.5,2.29c-1.16-0.04-2.02-0.62-2.36-1.79
		c-1.31-4.52-0.92-9.04,0.06-13.56c0.2-0.92,0.93-1.1,1.73-1.1c1.26,0,2.04,0.69,2.18,1.89C99.79,11.13,99.9,13.25,100.07,15.34z"/>
	<path class="st4" d="M73.5,67.29c7.33-0.08,8.97,1.31,9.08,7.67c0.16,9.17-0.9,10.48-8.47,10.54c-6.86,0.05-9.02-1.83-9.1-7.93
		C64.9,68.24,65.62,67.37,73.5,67.29z M69.03,76.22c-1.95,5.9,2.32,4.61,5.54,4.95c6,0.62,3.32-3.91,3.93-6.42
		c0.81-3.36-1.19-3.7-3.85-3.5C71.4,71.48,67.19,70.34,69.03,76.22z"/>
	<path class="st4" d="M57.7,76.04c-0.13,8.42-1.08,9.32-9.66,9.19c-6.4-0.1-7.92-1.94-7.84-9.49c0.08-7.06,1.73-8.57,9.22-8.46
		C56.75,67.4,57.82,68.53,57.7,76.04z M48.82,81.01c4.79,1.22,5.08-1.68,5.17-5.38c0.08-3.42-0.69-4.64-4.5-4.77
		c-4.68-0.17-5.26,2.01-5.33,5.71C44.1,79.97,44.87,81.98,48.82,81.01z"/>
	<path class="st4" d="M98.42,45c7.22-0.02,9.03,1.41,9.06,7.2c0.05,8.67-1.53,10.41-9.36,10.35c-6.91-0.05-8.23-1.39-8.29-8.41
		C89.77,45.73,90.44,45.02,98.42,45z M93.82,53.26c-0.63,3.45-0.03,5.04,4.2,5.33c5.61,0.39,5.06-2.64,5.39-6.28
		c0.36-3.95-1.84-3.59-4.41-3.62C95.7,48.66,92.52,48.43,93.82,53.26z"/>
	<path class="st4" d="M73.09,45c7.81,0,9.53,1.4,9.47,7.7c-0.07,8.37-1.27,9.9-7.73,9.87c-8.53-0.04-9.98-1.22-9.97-8.13
		C64.88,45.88,65.65,44.99,73.09,45z M73.42,48.9c-3.68-1.11-4.89,0.38-4.71,4.29c0.15,3.37-0.02,5.7,4.69,5.37
		c3.67-0.26,5.38-0.59,5.28-4.94C78.59,49.64,77.74,47.84,73.42,48.9z"/>
	<path class="st4" d="M57.74,53.86c0.02,6.84-1.49,8.72-7.05,8.72c-8.58,0.01-10.36-1.42-10.43-8.31c-0.08-8.2,0.72-9.26,7.03-9.27
		C56.92,44.98,57.71,45.66,57.74,53.86z M48.85,48.85c-4.67-1.34-4.59,1.6-4.78,5.03c-0.21,3.7,1.07,4.43,4.61,4.67
		c4.78,0.32,4.95-1.94,5.13-5.63C54.02,48.83,52.25,48.17,48.85,48.85z"/>
	<path class="st4" d="M108.05,99.15c-1.49-0.15-8.82-7.53-8.9-8.99c-0.09-1.72,0.78-2.27,2.28-1.58c0.81,0.37,1.72,0.91,2.18,1.63
		c3.29,5.17,5.92,3.03,8.86-0.47c2.56-3.04,5.53-5.73,8.34-8.56c0.65-0.66,1.4-1.39,2.35-0.6c0.59,0.49,0.93,1.29,0.47,2.07
		c-3.79,6.43-9.25,11.36-14.72,16.28C108.71,99.1,108.34,99.08,108.05,99.15z"/>
	<path class="st5" d="M69.03,76.22c-1.84-5.89,2.38-4.74,5.62-4.98c2.67-0.2,4.66,0.14,3.85,3.5c-0.61,2.52,2.07,7.04-3.93,6.42
		C71.35,80.84,67.08,82.12,69.03,76.22z"/>
	<path class="st5" d="M48.82,81.01c-3.96,0.97-4.73-1.05-4.66-4.44c0.07-3.71,0.65-5.88,5.33-5.71c3.8,0.13,4.58,1.35,4.5,4.77
		C53.9,79.34,53.62,82.24,48.82,81.01z"/>
	<path class="st5" d="M93.82,53.26c-1.31-4.83,1.88-4.61,5.18-4.57c2.58,0.03,4.77-0.33,4.41,3.62c-0.33,3.65,0.22,6.68-5.39,6.28
		C93.8,58.3,93.2,56.72,93.82,53.26z"/>
	<path class="st5" d="M73.42,48.9c4.32-1.06,5.17,0.74,5.26,4.71c0.1,4.35-1.61,4.68-5.28,4.94c-4.71,0.33-4.54-2-4.69-5.37
		C68.53,49.28,69.74,47.78,73.42,48.9z"/>
	<path class="st5" d="M48.85,48.85c3.4-0.68,5.18-0.01,4.97,4.07c-0.19,3.69-0.35,5.95-5.13,5.63c-3.54-0.24-4.82-0.97-4.61-4.67
		C44.26,50.45,44.18,47.51,48.85,48.85z"/>
</g>
</svg>
