<?xml version="1.0" encoding="utf-8"?>
<!-- Generator: Adobe Illustrator 25.0.0, SVG Export Plug-In . SVG Version: 6.00 Build 0)  -->
<svg version="1.1" id="Ebene_1" xmlns="http://www.w3.org/2000/svg" xmlns:xlink="http://www.w3.org/1999/xlink" x="0px" y="0px"
	 viewBox="0 0 217 145" style="enable-background:new 0 0 217 145;" xml:space="preserve">
<style type="text/css">
	.st0{display:none;}
	.st1{display:inline;fill:#274063;}
	.st2{display:inline;fill:#EFEFF1;}
	.st3{display:inline;fill:#6BC3C4;}
	.st4{fill:#274063;}
	.st5{fill:#EFEFF1;}
</style>
<g class="st0">
	<path class="st1" d="M-171.31,167.76c-30.03,0-60.06,0.14-90.09-0.05c-21.69-0.14-35.2-11.43-35.67-32.92
		c-1.18-54.3-2.37-108.65,0.09-162.95c0.7-15.4,14.55-27.57,30.96-28.94c3.56-0.3,7.21-0.65,10.7-0.15c6.94,1,8.9-1.57,9.35-8.54
		c0.87-13.31,9.32-19.94,21.08-18.35c10.24,1.39,13.68,8.55,14.01,17.37c0.26,7.2,2.56,9.74,10.09,9.58
		c21.08-0.44,42.19-0.2,63.27,0.2c6.01,0.11,8.74-0.82,9.08-7.86c0.6-12.26,7.35-18.88,17.4-19.21c9.12-0.3,14.95,4.92,16.77,17.05
		c1.07,7.14,2.89,9.91,10.99,9.9C-54.33-57.17-42.47-45-42.33-15.82c0.22,47.19,0.28,94.38-0.02,141.57
		c-0.2,31.6-11.41,42.23-43.16,42.24c-28.6,0.01-57.2,0-85.8,0C-171.31,167.92-171.31,167.84-171.31,167.76z M-172.37,157.69
		c0,0.13,0,0.27,0,0.41c29.64,0,59.3,0.35,88.93-0.11c24.38-0.38,31.38-7.29,31.79-31.45c0.79-47.13,1.13-94.28-0.29-141.41
		c-0.8-26.56-6.25-31.79-32.37-32.61c-6.21-0.2-9.11,0.84-8.84,7.88c0.3,7.89-2.75,14.71-10.34,18.5
		c-12.35,6.17-23.58-1.06-25.18-17.56c-0.75-7.69-3.34-9.18-10.33-9c-18.2,0.47-36.44,0.57-54.64,0
		c-10.26-0.33-17.9-0.02-17.23,13.72c0.39,7.93-5.74,12.95-13.3,14.66c-7.3,1.65-13.07-1.64-17.74-7.34
		c-3.65-4.46-4.46-9.54-4.57-15.01c-0.05-2.65,0.52-5.46-3.52-6.64c-14.34-4.19-30.01,2.8-35.9,16.39
		c-2.77,6.4-3.04,13.21-3.02,19.98c0.12,47.5,0.28,95.01,0.62,142.51c0.13,17.74,8.47,26.73,25.95,26.97
		C-232.37,157.99-202.37,157.69-172.37,157.69z M-120.11-51.23c0.02,6.02-0.39,12.08,2.23,17.8c1.32,2.88,3.65,4.36,6.53,4.86
		c3.45,0.6,5.54-1.81,6.35-4.51c3.53-11.76,4.2-23.71,0.3-35.51c-1-3.03-3.55-5.4-7.21-5.5c-4.05-0.11-5.23,3.03-6.35,6.05
		C-120.28-62.61-120.36-56.93-120.11-51.23z M-235.95-51.9c-0.25,0.01-0.5,0.01-0.76,0.02c0.23,4.97-0.05,10.04,0.85,14.88
		c0.84,4.54,4.2,7.26,9.1,7.58c5.22,0.34,5.7-4.17,6.22-7.19c1.69-9.86,1.83-19.86-0.28-29.71c-0.81-3.78-1.95-7.91-7.15-7.94
		c-5.65-0.04-7.15,4.42-7.82,8.52C-236.52-61.24-235.95-56.53-235.95-51.9z"/>
	<path class="st2" d="M-172.37,157.69c-30,0-60,0.31-89.99-0.12c-17.48-0.25-25.83-9.23-25.95-26.97c-0.34-47.5-0.5-95-0.62-142.51
		c-0.02-6.77,0.25-13.57,3.02-19.98c5.89-13.59,21.56-20.58,35.9-16.39c4.04,1.18,3.47,3.98,3.52,6.64
		c0.11,5.47,0.92,10.55,4.57,15.01c4.67,5.7,10.44,8.99,17.74,7.34c7.56-1.71,13.69-6.73,13.3-14.66
		c-0.67-13.74,6.97-14.04,17.23-13.72c18.2,0.58,36.43,0.47,54.64,0c6.99-0.18,9.58,1.31,10.33,9c1.61,16.5,12.83,23.72,25.18,17.56
		c7.59-3.79,10.64-10.61,10.34-18.5c-0.27-7.04,2.64-8.08,8.84-7.88c26.12,0.82,31.57,6.06,32.37,32.61
		c1.42,47.13,1.08,94.28,0.29,141.41c-0.4,24.16-7.41,31.07-31.79,31.45c-29.64,0.46-59.29,0.11-88.93,0.11
		C-172.37,157.96-172.37,157.82-172.37,157.69z M-169.95,1.44c0-0.03,0-0.05,0-0.08c-30.02,0-60.04-0.05-90.06,0.02
		c-18.58,0.04-18.55,0.12-18.58,18.29c-0.05,35.74-0.4,71.47-0.08,107.21c0.14,16.02,4.77,19.83,20.67,20.2
		c55.39,1.28,110.78,1.45,166.18,0.75c26.37-0.33,29.38-3.12,30.74-29.25c0.07-1.43,0.1-2.86,0.09-4.29
		c-0.19-34.67-0.58-69.33-0.41-104c0.03-6.93-1.7-9.09-8.82-9.01C-103.47,1.64-136.71,1.44-169.95,1.44z"/>
	<path class="st2" d="M-120.1-51.23c-0.25-5.7-0.18-11.38,1.85-16.81c1.12-3.02,2.3-6.16,6.35-6.05c3.65,0.1,6.2,2.47,7.21,5.5
		c3.9,11.81,3.23,23.75-0.3,35.51c-0.81,2.69-2.9,5.11-6.35,4.51c-2.89-0.5-5.21-1.98-6.53-4.86
		C-120.5-39.15-120.09-45.21-120.1-51.23z"/>
	<path class="st2" d="M-235.95-51.9c0-4.63-0.57-9.34,0.17-13.85c0.67-4.09,2.17-8.56,7.82-8.52c5.2,0.04,6.34,4.16,7.15,7.94
		c2.11,9.85,1.98,19.86,0.28,29.71c-0.52,3.02-1,7.53-6.22,7.19c-4.9-0.32-8.27-3.04-9.1-7.58c-0.9-4.85-0.62-9.91-0.85-14.88
		C-236.46-51.89-236.21-51.9-235.95-51.9z"/>
	<path class="st1" d="M-169.95,1.44c33.24,0,66.48,0.2,99.71-0.16c7.12-0.08,8.85,2.08,8.82,9.01c-0.17,34.66,0.22,69.33,0.41,104
		c0.01,1.43-0.02,2.86-0.09,4.29c-1.36,26.13-4.36,28.92-30.74,29.25c-55.4,0.69-110.79,0.53-166.18-0.75
		c-15.89-0.37-20.53-4.18-20.67-20.2c-0.31-35.73,0.03-71.47,0.08-107.21c0.03-18.17,0-18.25,18.58-18.29
		c30.02-0.06,60.04-0.02,90.06-0.02C-169.95,1.39-169.95,1.41-169.95,1.44z M-167.25,138.19c0-0.04,0-0.07,0-0.11
		c27.14,0,54.31-0.66,81.42,0.3c12.08,0.43,14.35-4.72,14.29-14.9c-0.2-34.65-0.13-69.31,0.27-103.96c0.08-6.61-1.7-8.33-8.33-8.3
		c-60.38,0.27-120.76,0.25-181.14,0.02c-6.37-0.02-8.6,1.29-8.49,8.16c0.52,33.93,0.36,67.88,0.68,101.82
		c0.14,15.05,1.59,16.7,16.63,16.87C-223.7,138.42-195.47,138.19-167.25,138.19z"/>
	<path class="st3" d="M-167.25,138.19c-28.22,0-56.44,0.23-84.66-0.09c-15.04-0.17-16.49-1.82-16.63-16.87
		c-0.32-33.94-0.16-67.88-0.68-101.82c-0.1-6.87,2.12-8.19,8.49-8.16c60.38,0.23,120.76,0.25,181.14-0.02
		c6.62-0.03,8.4,1.7,8.33,8.3c-0.4,34.65-0.48,69.31-0.27,103.96c0.06,10.18-2.21,15.33-14.29,14.9c-27.11-0.96-54.28-0.3-81.42-0.3
		C-167.25,138.12-167.25,138.15-167.25,138.19z"/>
</g>
<g>
	<path class="st4" d="M109.1,138.43c-27.44,0-54.89,0.25-82.32-0.11c-12.34-0.16-15.83-3.88-17.41-16.12
		c-0.44-3.42-0.09-6.93-0.32-10.38c-0.57-8.5,0.16-14.75,10-19.42c14.45-6.85,13.11-28.15-1.77-35.38
		c-6.75-3.28-8.77-7.17-8.19-13.97c0.54-6.36,0.07-12.81,0.74-19.14c0.89-8.4,6.45-13.44,14.86-13.46
		c56.22-0.08,112.44-0.07,168.66,0.04c8.34,0.02,14.94,6.88,15.11,15.08c0.09,4.26-0.22,8.54,0.07,12.79
		c0.59,8.74-0.18,15.11-10.1,20.1c-13.83,6.95-11.69,28.27,3.07,35.88c6.13,3.16,7.79,6.84,7.47,12.98
		c-0.35,6.62,0.61,13.31-1.47,19.82c-2.27,7.08-6.58,11.29-14.46,11.27c-27.98-0.07-55.95-0.03-83.93-0.03
		C109.1,138.4,109.1,138.41,109.1,138.43z M178.99,131.73c0-0.07,0-0.14,0-0.21c4.8,0,9.6-0.1,14.39,0.04
		c2.67,0.08,4.59-0.76,5.86-3.17c3.84-7.32,1.82-15.13,2.03-22.77c0.14-5.03-4.34-5.63-7.03-7.78c-17.64-14.11-16.31-36.4,3-47.38
		c1.84-1.05,3.93-1.55,3.94-4.35c0.01-6.65,0.57-13.33-0.64-19.93c-1.1-6.01-4.76-9.45-10.92-9.55c-7.19-0.13-14.38,0.16-21.58,0.17
		c-3.95,0.01-7.48,0.17-7.2,5.68c0.07,1.42-0.62,3.35-2.54,3.55c-1.94,0.2-3.17-1.46-3.07-2.98c0.45-6.95-4.35-5.82-8.49-5.82
		c-36.52,0-73.03,0-109.55,0c-21.39,0-22.06,0.83-21.25,22.79c0.19,5.1,1.11,8.63,6.28,11.49c17.85,9.91,18.66,35.23,1.38,46.37
		c-5.72,3.69-8.18,7.53-7.22,14.07c0.42,2.87,0.19,5.86,0.09,8.78c-0.25,7.83,3.61,10.83,11.28,10.81
		c39.71-0.12,79.43,0.02,119.14,0.04c3.93,0,8.43,0.86,8.06-5.65c-0.11-1.94,1.63-3.57,3.73-3.32c1.68,0.21,2.69,1.87,2.42,3.6
		c-0.92,5.77,2.67,5.73,6.69,5.55C171.52,131.6,175.25,131.73,178.99,131.73z"/>
	<path class="st5" d="M178.99,131.73c-3.73,0-7.47-0.13-11.19,0.04c-4.02,0.18-7.61,0.22-6.69-5.55c0.28-1.73-0.74-3.39-2.42-3.6
		c-2.1-0.26-3.84,1.37-3.73,3.32c0.36,6.52-4.13,5.65-8.06,5.65c-39.71-0.02-79.43-0.15-119.14-0.04
		c-7.67,0.02-11.53-2.97-11.28-10.81c0.09-2.93,0.33-5.91-0.09-8.78c-0.96-6.54,1.49-10.38,7.22-14.07
		c17.27-11.14,16.47-36.46-1.38-46.37c-5.16-2.86-6.09-6.39-6.28-11.49c-0.81-21.96-0.14-22.79,21.25-22.79
		c36.52,0,73.03,0,109.55,0c4.14,0,8.94-1.13,8.49,5.82c-0.1,1.52,1.12,3.18,3.07,2.98c1.92-0.2,2.61-2.13,2.54-3.55
		c-0.28-5.51,3.25-5.67,7.2-5.68c7.19-0.01,14.39-0.29,21.58-0.17c6.16,0.11,9.82,3.55,10.92,9.55c1.21,6.6,0.65,13.28,0.64,19.93
		c-0.01,2.79-2.09,3.3-3.94,4.35c-19.31,10.97-20.64,33.27-3,47.38c2.69,2.15,7.17,2.74,7.03,7.78c-0.21,7.64,1.81,15.45-2.03,22.77
		c-1.26,2.41-3.19,3.25-5.86,3.17c-4.79-0.13-9.59-0.04-14.39-0.04C178.99,131.59,178.99,131.66,178.99,131.73z M67.12,75.5
		c-4.34-2.04-3.01-5.75-4.59-8.15c-1.54-2.34-3.62-3.29-6.12-2.5c-1.91,0.61-4.51,0.55-5.37,2.93c-1.26,3.47,2.17,2.61,3.56,3.72
		c2.14,1.71,1.81,3.82-0.45,5.15c-1.74,1.02-3.8,1.93-2.06,4.04c2.13,2.6,3.71,0.06,4.98-1.4c2.53-2.91,4.59-3.81,6.09,0.75
		c0.63,1.92,2.14,2.23,3.81,1.99c2.19-0.31,3.36-1.91,3.31-3.9c-0.18-7.08,4.53-5.22,8.47-5.35c0.32,2.93-1.99,4.14-2.61,6.12
		c-0.28,0.91-0.57,2.11-0.2,2.85c0.54,1.07,1.96,1.02,2.8,0.34c9.04-7.3,7.67-0.28,7.22,5.26c-0.37,4.57,2.39,9.08-0.45,13.85
		c-1.11,1.86,0.29,4.7,3.65,4.77c1.76,0.03,4.08-0.41,3.91,2.54c-0.1,1.85-0.27,3.79-2.96,3.84c-1.9,0.04-3.99,0.33-3.69,2.95
		c0.1,0.83,1.19,1.68,2.02,2.26c1.97,1.36,4.08,0.36,4.81-1.19c2.4-5.12,4.6-2.71,7.02-0.21c3.09,3.19,5.01,4.17,7.08-1.43
		c1.84-4.98,13.13-7.7,18.26-5.53c1.7,0.72,3.46,1.37,5.25,1.81c2.14,0.53,4.87,2.64,6.22-0.68c1.24-3.06-1.72-4.21-3.8-5.07
		c-5.69-2.36-5.07-5.2-1.12-8.72c1.39-1.23,2.65-2.64,3.77-4.12c0.92-1.23,2.06-2.85,0-3.97c-1.12-0.61-2.9-0.62-3.52,0.78
		c-3.41,7.71-4.89,1.67-6.65-0.94c-1.2-1.79-3.61-3.35-1.9-6.32c2.51,0.08,3.4,3.66,6.43,2.75c0.98-2.02-1.22-6.67,5.03-5.03
		c2.89,0.76,4.98-5.04,2.11-7.1c-3.58-2.58-6.23-11.77-13.23-3.97c-0.82,0.91-1.84,0.35-2.84-0.2c-8.47-4.61-14.6-4.2-22.42,1.57
		c-2.35,1.73-3.42-0.48-4.52-1.52c-1.74-1.64-0.57-4.05-0.8-6.11c-0.26-2.42-0.65-5.29-3.41-5.71c-3-0.45-4.03,2.36-4.23,4.73
		c-0.28,3.19-1.26,4.63-4.8,4.58C74.42,65.84,65.87,63.3,67.12,75.5z M51.32,46.22c-0.14,15.23-0.14,15.23,14.05,15.2
		c15.81-0.04,15.81-0.04,15.8-15.82c-0.01-14.7-0.01-14.7-14.39-14.7C51.47,30.9,51.47,30.9,51.32,46.22z M65.57,118.15
		c15.5,0.02,15.5,0.02,15.55-15.21c0.05-14.66,0.05-14.66-14.29-14.66c-15.55-0.01-15.55-0.01-15.6,15.19
		C51.17,118.13,51.17,118.13,65.57,118.15z M122.36,61.42c15,0,15,0,15.36-14.79c0.01-0.27,0.01-0.53,0.01-0.8
		c0.3-14.47,0.3-14.47-13.9-14.47c-15.9,0-15.9,0-15.8,16.19C108.12,61.42,108.12,61.42,122.36,61.42z M103.76,38.2
		c-0.15-2.8-0.03-4.84-2.05-5.79c-1.8-0.84-3.4,0.22-3.73,1.8c-1.23,5.78-3.56,5.38-7.11,1.77c-1.22-1.24-3.02-1.03-4.17,0.51
		c-1.18,1.58-0.69,2.94,0.87,4c2.85,1.93,2.12,3.73-0.07,5.68c-4.32,3.85-1.87,5.03,2.26,5.6c3.59,0.49,7.71,0.26,7.39,5.92
		c-0.11,1.86-0.26,5,2.84,4.36c2.4-0.49,3.09-3.2,3.62-5.67c1.29-6.06-7.93-4.47-6.86-8.86C97.67,43.72,105.04,43.32,103.76,38.2z
		 M154.58,85.11c0.51,2.81-0.67,7.12,4.01,7.18c3.37,0.04,2.42-3.54,2.53-5.74c0.16-3.18,0.48-7.21-3.98-7.3
		C153.57,79.18,155.3,82.9,154.58,85.11z M154.58,40.33c0.01,3.46-0.18,7.41,3.95,7.59c4.02,0.18,2.4-3.84,2.66-6.08
		c0.38-3.24,0.01-7.05-4.05-7.23C152.8,34.42,155.56,38.6,154.58,40.33z M161.35,63.62c-0.01-3.13-0.43-6.38-3.58-6.48
		c-3.83-0.12-2.88,3.63-3.01,6.01c-0.15,2.88-0.17,6.95,3.26,7C161.59,70.2,160.81,65.93,161.35,63.62z M161.21,108.36
		c0.14-3.42-0.36-6.79-4.12-6.68c-3.4,0.1-2.2,3.64-2.31,5.77c-0.14,2.9-0.23,6.52,3.95,6.34
		C162.3,113.63,160.64,110.13,161.21,108.36z"/>
	<path class="st4" d="M67.12,75.5c-1.25-12.2,7.3-9.65,14.05-9.55c3.54,0.05,4.52-1.39,4.8-4.58c0.21-2.36,1.23-5.18,4.23-4.73
		c2.76,0.42,3.14,3.29,3.41,5.71c0.22,2.07-0.95,4.47,0.8,6.11c1.1,1.03,2.17,3.25,4.52,1.52c7.82-5.77,13.95-6.18,22.42-1.57
		c1.01,0.55,2.02,1.11,2.84,0.2c7-7.81,9.65,1.39,13.23,3.97c2.87,2.07,0.78,7.86-2.11,7.1c-6.25-1.64-4.05,3.02-5.03,5.03
		c-3.02,0.91-3.92-2.66-6.43-2.75c-1.7,2.97,0.7,4.53,1.9,6.32c1.76,2.62,3.25,8.65,6.65,0.94c0.62-1.4,2.4-1.4,3.52-0.78
		c2.06,1.13,0.92,2.75,0,3.97c-1.11,1.48-2.38,2.89-3.77,4.12c-3.95,3.51-4.57,6.36,1.12,8.72c2.08,0.86,5.04,2.01,3.8,5.07
		c-1.35,3.32-4.08,1.21-6.22,0.68c-1.79-0.44-3.55-1.09-5.25-1.81c-5.13-2.18-16.42,0.54-18.26,5.53c-2.06,5.6-3.99,4.62-7.08,1.43
		c-2.41-2.5-4.61-4.91-7.02,0.21c-0.73,1.55-2.84,2.55-4.81,1.19c-0.83-0.57-1.92-1.43-2.02-2.26c-0.3-2.62,1.79-2.91,3.69-2.95
		c2.69-0.06,2.85-1.99,2.96-3.84c0.17-2.95-2.16-2.5-3.91-2.54c-3.36-0.06-4.76-2.9-3.65-4.77c2.85-4.77,0.08-9.27,0.45-13.85
		c0.45-5.55,1.82-12.56-7.22-5.26c-0.84,0.68-2.26,0.73-2.8-0.34c-0.37-0.74-0.08-1.94,0.2-2.85c0.62-1.98,2.93-3.18,2.61-6.12
		c-3.94,0.13-8.65-1.73-8.47,5.35c0.05,1.98-1.12,3.59-3.31,3.9c-1.67,0.24-3.18-0.06-3.81-1.99c-1.5-4.55-3.56-3.65-6.09-0.75
		c-1.26,1.45-2.85,3.99-4.98,1.4c-1.73-2.11,0.32-3.02,2.06-4.04c2.26-1.33,2.58-3.44,0.45-5.15c-1.4-1.12-4.82-0.25-3.56-3.72
		c0.86-2.38,3.45-2.32,5.37-2.93c2.5-0.79,4.58,0.16,6.12,2.5C64.11,69.75,62.78,73.46,67.12,75.5z M95.26,89.84
		c-9.61,13.18,4.42,14.78,9.43,21.3c1.38-3.86,2.78-7.01,7.4-5.82c1.41,0.36,2.61-0.03,2.7-1.87c0.08-1.51-0.55-2.65-1.99-2.99
		c-2.04-0.49-4.18-1.19-6.21-1C99.7,100.13,93.53,100.29,95.26,89.84z M109.54,93.9c1.46-0.07,2.02,0.02,2.5-0.15
		c2.22-0.76,5.87,0.93,6.21-3.06c0.22-2.62-1.86-4.24-3.98-5.42c-3.6-2-3.59,0.99-4.35,3.15c-0.88,2.48-3.25,0.78-4.78,1.46
		c-0.57,0.26-1.27,1.01-1.27,1.54c0,0.56,0.65,1.49,1.19,1.63C106.8,93.54,108.63,93.74,109.54,93.9z M112.9,69.46
		c3.07,10.93-6.05,6.33-9.89,8.52c2.8,3.29,5.96,1.73,8.68,2.13c2.87,0.42,6.35,0.61,7.42-2.84
		C120.27,73.5,117.33,71.69,112.9,69.46z M96.47,80.23c-2.52-5.05-4.15-8.29-8.64-9.55C87.24,76.65,90.61,78.35,96.47,80.23z"/>
	<path class="st4" d="M51.32,46.22C51.47,30.9,51.47,30.9,66.79,30.9c14.38,0,14.38,0,14.39,14.7c0.01,15.78,0.01,15.78-15.8,15.82
		C51.18,61.46,51.18,61.46,51.32,46.22z M75.24,47.94c-0.2-11.27-0.2-11.14-12.09-11.08c-11.89,0.06-4.99,8.86-5.8,13.37
		c-1.84,10.29,6.65,4.72,10.62,5.65C75.85,57.71,75.86,52.43,75.24,47.94z"/>
	<path class="st4" d="M65.57,118.15c-14.4-0.02-14.4-0.02-14.35-14.69c0.05-15.19,0.05-15.19,15.6-15.19
		c14.34,0.01,14.34,0.01,14.29,14.66C81.07,118.17,81.07,118.17,65.57,118.15z M66.83,93.77c-9.97,0.15-9.58,0.16-9.86,11.71
		c-0.28,11.29,7.97,6.16,12.32,6.25c11.51,0.24,4.4-8.98,5.4-13.53C76.47,90.12,69.3,94.88,66.83,93.77z"/>
	<path class="st4" d="M122.36,61.42c-14.24,0-14.24,0-14.33-13.86c-0.1-16.19-0.1-16.19,15.8-16.19c14.2,0,14.2,0,13.9,14.47
		c-0.01,0.27-0.01,0.53-0.01,0.8C137.36,61.42,137.36,61.42,122.36,61.42z M131.86,44.84c2.02-7.01-2.49-8.45-9.98-7.8
		c-9.91,0.86-8.51-2.97-9.09,12.81c-0.41,11.13,8.01,5.08,12.38,6.11C133.93,58.04,131.32,51.06,131.86,44.84z"/>
	<path class="st4" d="M103.76,38.2c1.28,5.12-6.09,5.52-7.01,9.32c-1.07,4.39,8.15,2.8,6.86,8.86c-0.53,2.47-1.21,5.18-3.62,5.67
		c-3.1,0.63-2.95-2.51-2.84-4.36c0.32-5.66-3.8-5.43-7.39-5.92c-4.13-0.56-6.58-1.74-2.26-5.6c2.18-1.95,2.91-3.75,0.07-5.68
		c-1.57-1.06-2.06-2.43-0.87-4c1.15-1.53,2.95-1.75,4.17-0.51c3.55,3.62,5.88,4.02,7.11-1.77c0.33-1.58,1.93-2.64,3.73-1.8
		C103.73,33.36,103.6,35.4,103.76,38.2z"/>
	<path class="st4" d="M154.58,85.11c0.72-2.21-1.01-5.93,2.56-5.86c4.46,0.09,4.14,4.12,3.98,7.3c-0.11,2.19,0.84,5.78-2.53,5.74
		C153.91,92.23,155.08,87.93,154.58,85.11z"/>
	<path class="st4" d="M154.58,40.33c0.98-1.73-1.78-5.91,2.56-5.72c4.06,0.18,4.43,3.99,4.05,7.23c-0.27,2.24,1.35,6.25-2.66,6.08
		C154.4,47.74,154.59,43.79,154.58,40.33z"/>
	<path class="st4" d="M161.35,63.62c-0.54,2.3,0.24,6.58-3.32,6.53c-3.44-0.04-3.41-4.12-3.26-7c0.12-2.38-0.82-6.13,3.01-6.01
		C160.92,57.25,161.34,60.49,161.35,63.62z"/>
	<path class="st4" d="M161.21,108.36c-0.57,1.77,1.09,5.27-2.48,5.43c-4.18,0.18-4.09-3.44-3.95-6.34c0.1-2.14-1.09-5.67,2.31-5.77
		C160.84,101.57,161.35,104.94,161.21,108.36z"/>
	<path class="st5" d="M95.26,89.84c-1.73,10.45,4.44,10.28,11.34,9.63c2.02-0.19,4.17,0.51,6.21,1c1.44,0.34,2.06,1.48,1.99,2.99
		c-0.09,1.83-1.29,2.23-2.7,1.87c-4.62-1.19-6.03,1.96-7.4,5.82C99.68,104.63,85.65,103.03,95.26,89.84z"/>
	<path class="st5" d="M109.54,93.9c-0.91-0.15-2.74-0.35-4.49-0.84c-0.54-0.15-1.19-1.07-1.19-1.63c0-0.53,0.7-1.28,1.27-1.54
		c1.53-0.69,3.9,1.02,4.78-1.46c0.77-2.16,0.75-5.15,4.35-3.15c2.12,1.18,4.2,2.8,3.98,5.42c-0.34,4-3.99,2.31-6.21,3.06
		C111.56,93.91,110.99,93.82,109.54,93.9z"/>
	<path class="st5" d="M112.9,69.46c4.44,2.23,7.37,4.04,6.21,7.8c-1.07,3.45-4.54,3.26-7.42,2.84c-2.72-0.4-5.88,1.17-8.68-2.13
		C106.84,75.79,115.97,80.4,112.9,69.46z"/>
	<path class="st5" d="M96.47,80.23c-5.87-1.89-9.23-3.58-8.64-9.55C92.32,71.95,93.96,75.18,96.47,80.23z"/>
	<path class="st5" d="M75.24,47.94c0.62,4.49,0.6,9.78-7.28,7.93c-3.97-0.93-12.46,4.64-10.62-5.65c0.81-4.51-6.1-13.3,5.8-13.37
		C75.04,36.79,75.04,36.67,75.24,47.94z M66.48,40.75c-4.09-0.68-6.63,0.11-6.25,5.19c0.27,3.64-0.2,6.78,5.21,6.42
		c4.1-0.27,7.12-0.2,6.79-5.81C71.97,42.37,71.34,39.75,66.48,40.75z"/>
	<path class="st5" d="M66.83,93.77c2.47,1.1,9.64-3.65,7.86,4.43c-1,4.55,6.1,13.77-5.4,13.53c-4.35-0.09-12.6,5.04-12.32-6.25
		C57.26,93.94,56.86,93.93,66.83,93.77z M66,108.36c4.45,1.13,5.92-1.07,6.14-5.88c0.27-5.82-3.52-4.44-6.71-4.87
		c-4.65-0.63-5.09,1.88-5.07,5.6C60.39,106.93,60.76,109.67,66,108.36z"/>
	<path class="st5" d="M131.86,44.84c-0.54,6.22,2.08,13.2-6.7,11.12c-4.37-1.04-12.79,5.02-12.38-6.11
		c0.58-15.78-0.82-11.95,9.09-12.81C129.36,36.39,133.88,37.83,131.86,44.84z M122.05,51.5c4.5,0.76,6.75-0.27,6.77-5.59
		c0.02-5.51-3.06-4.82-6.54-4.97c-3.98-0.17-6.28,0.38-6.17,5.4C116.21,51.02,117.78,52.53,122.05,51.5z"/>
	<path class="st4" d="M66.48,40.75c4.87-1,5.49,1.62,5.75,5.8c0.34,5.61-2.69,5.54-6.79,5.81c-5.4,0.36-4.93-2.78-5.21-6.42
		C59.85,40.87,62.39,40.07,66.48,40.75z"/>
	<path class="st4" d="M66,108.36c-5.25,1.32-5.61-1.43-5.64-5.16c-0.03-3.72,0.41-6.23,5.07-5.6c3.19,0.43,6.98-0.95,6.71,4.87
		C71.92,107.29,70.46,109.49,66,108.36z"/>
	<path class="st4" d="M122.05,51.5c-4.27,1.03-5.84-0.48-5.94-5.17c-0.11-5.02,2.19-5.57,6.17-5.4c3.48,0.15,6.56-0.54,6.54,4.97
		C128.8,51.23,126.55,52.25,122.05,51.5z"/>
</g>
</svg>
