<?xml version="1.0" encoding="utf-8"?>
<!-- Generator: Adobe Illustrator 25.0.0, SVG Export Plug-In . SVG Version: 6.00 Build 0)  -->
<svg version="1.1" xmlns="http://www.w3.org/2000/svg" xmlns:xlink="http://www.w3.org/1999/xlink" x="0px" y="0px"
	 viewBox="0 0 138.69 135.66" style="enable-background:new 0 0 138.69 135.66;" xml:space="preserve">
<style type="text/css">
	.st0{display:none;}
	.st1{display:inline;fill:#274063;}
	.st2{display:inline;fill:#EFEFF1;}
	.st3{display:inline;fill:#6BC3C4;}
	.st4{fill:#274063;}
	.st5{fill:#EFEFF1;}
	.st6{fill:#F9B233;}
</style>
<g id="Ebene_1">
	<g class="st0">
		<path class="st1" d="M-211.07,163.33c-30.03,0-60.06,0.14-90.09-0.05c-21.69-0.14-35.2-11.43-35.67-32.92
			c-1.18-54.3-2.37-108.65,0.09-162.95c0.7-15.4,14.55-27.57,30.96-28.94c3.56-0.3,7.21-0.65,10.7-0.15c6.94,1,8.9-1.57,9.35-8.54
			c0.87-13.31,9.32-19.94,21.08-18.35c10.24,1.39,13.68,8.55,14.01,17.37c0.26,7.2,2.56,9.74,10.09,9.58
			c21.08-0.44,42.19-0.2,63.27,0.2c6.01,0.11,8.74-0.82,9.08-7.86c0.6-12.26,7.35-18.88,17.4-19.21c9.12-0.3,14.95,4.92,16.77,17.05
			c1.07,7.14,2.89,9.91,10.99,9.9c28.96-0.07,40.82,12.11,40.96,41.29c0.22,47.19,0.28,94.38-0.02,141.57
			c-0.2,31.6-11.41,42.23-43.16,42.24c-28.6,0.01-57.2,0-85.8,0C-211.07,163.49-211.07,163.41-211.07,163.33z M-212.13,153.26
			c0,0.13,0,0.27,0,0.41c29.64,0,59.3,0.35,88.93-0.11c24.38-0.38,31.38-7.29,31.79-31.45c0.79-47.13,1.13-94.28-0.29-141.41
			c-0.8-26.56-6.25-31.79-32.37-32.61c-6.21-0.2-9.11,0.84-8.84,7.88c0.3,7.89-2.75,14.71-10.34,18.5
			c-12.35,6.17-23.58-1.06-25.18-17.56c-0.75-7.69-3.34-9.18-10.33-9c-18.2,0.47-36.44,0.57-54.64,0
			c-10.26-0.33-17.9-0.02-17.23,13.72c0.39,7.93-5.74,12.95-13.3,14.66c-7.3,1.65-13.07-1.64-17.74-7.34
			c-3.65-4.46-4.46-9.54-4.57-15.01c-0.05-2.65,0.52-5.46-3.52-6.64c-14.34-4.19-30.01,2.8-35.9,16.39
			c-2.77,6.4-3.04,13.21-3.02,19.98c0.12,47.5,0.28,95.01,0.62,142.51c0.13,17.74,8.47,26.73,25.95,26.97
			C-272.14,153.56-242.13,153.26-212.13,153.26z M-159.87-55.67c0.02,6.02-0.39,12.08,2.23,17.8c1.32,2.88,3.65,4.36,6.53,4.86
			c3.45,0.6,5.54-1.81,6.35-4.51c3.53-11.76,4.2-23.71,0.3-35.51c-1-3.03-3.55-5.4-7.21-5.5c-4.05-0.11-5.23,3.03-6.35,6.05
			C-160.04-67.04-160.12-61.36-159.87-55.67z M-275.72-56.33c-0.25,0.01-0.5,0.01-0.76,0.02c0.23,4.97-0.05,10.04,0.85,14.88
			c0.84,4.54,4.2,7.26,9.1,7.58c5.22,0.34,5.7-4.17,6.22-7.19c1.69-9.86,1.83-19.86-0.28-29.71c-0.81-3.78-1.95-7.91-7.15-7.94
			c-5.65-0.04-7.15,4.42-7.82,8.52C-276.28-65.68-275.72-60.96-275.72-56.33z"/>
		<path class="st2" d="M-212.13,153.26c-30,0-60,0.31-89.99-0.12c-17.48-0.25-25.83-9.23-25.95-26.97c-0.34-47.5-0.5-95-0.62-142.51
			c-0.02-6.77,0.25-13.57,3.02-19.98c5.89-13.59,21.56-20.58,35.9-16.39c4.04,1.18,3.47,3.98,3.52,6.64
			c0.11,5.47,0.92,10.55,4.57,15.01c4.67,5.7,10.44,8.99,17.74,7.34c7.56-1.71,13.69-6.73,13.3-14.66
			c-0.67-13.74,6.97-14.04,17.23-13.72c18.2,0.58,36.43,0.47,54.64,0c6.99-0.18,9.58,1.31,10.33,9
			c1.61,16.5,12.83,23.72,25.18,17.56c7.59-3.79,10.64-10.61,10.34-18.5c-0.27-7.04,2.64-8.08,8.84-7.88
			c26.12,0.82,31.57,6.06,32.37,32.61c1.42,47.13,1.08,94.28,0.29,141.41c-0.4,24.16-7.41,31.07-31.79,31.45
			c-29.64,0.46-59.29,0.11-88.93,0.11C-212.13,153.53-212.13,153.39-212.13,153.26z M-209.71-3c0-0.03,0-0.05,0-0.08
			c-30.02,0-60.04-0.05-90.06,0.02c-18.58,0.04-18.55,0.12-18.58,18.29c-0.05,35.74-0.4,71.47-0.08,107.21
			c0.14,16.02,4.77,19.83,20.67,20.2c55.39,1.28,110.78,1.45,166.18,0.75c26.37-0.33,29.38-3.12,30.74-29.25
			c0.07-1.43,0.1-2.86,0.09-4.29c-0.19-34.67-0.58-69.33-0.41-104c0.03-6.93-1.7-9.09-8.82-9.01C-143.23-2.79-176.47-3-209.71-3z"/>
		<path class="st2" d="M-159.87-55.66c-0.25-5.7-0.18-11.38,1.85-16.81c1.12-3.02,2.3-6.16,6.35-6.05c3.65,0.1,6.2,2.47,7.21,5.5
			c3.9,11.81,3.23,23.75-0.3,35.51c-0.81,2.69-2.9,5.11-6.35,4.51c-2.89-0.5-5.21-1.98-6.53-4.86
			C-160.26-43.59-159.85-49.64-159.87-55.66z"/>
		<path class="st2" d="M-275.72-56.33c0-4.63-0.57-9.34,0.17-13.85c0.67-4.09,2.17-8.56,7.82-8.52c5.2,0.04,6.34,4.16,7.15,7.94
			c2.11,9.85,1.98,19.86,0.28,29.71c-0.52,3.02-1,7.53-6.22,7.19c-4.9-0.32-8.27-3.04-9.1-7.58c-0.9-4.85-0.61-9.91-0.85-14.88
			C-276.22-56.32-275.97-56.33-275.72-56.33z"/>
		<path class="st1" d="M-209.71-3c33.24,0,66.48,0.2,99.71-0.16c7.12-0.08,8.85,2.08,8.82,9.01c-0.17,34.66,0.22,69.33,0.41,104
			c0.01,1.43-0.02,2.86-0.09,4.29c-1.36,26.13-4.36,28.92-30.74,29.25c-55.4,0.69-110.79,0.53-166.18-0.75
			c-15.89-0.37-20.53-4.18-20.67-20.2c-0.31-35.73,0.03-71.47,0.08-107.21c0.03-18.17,0-18.25,18.58-18.29
			c30.02-0.06,60.04-0.02,90.06-0.02C-209.71-3.05-209.71-3.02-209.71-3z M-207.02,133.76c0-0.04,0-0.07,0-0.11
			c27.14,0,54.31-0.66,81.42,0.3c12.08,0.43,14.35-4.72,14.29-14.9c-0.2-34.65-0.13-69.31,0.27-103.96c0.08-6.61-1.7-8.33-8.33-8.3
			c-60.38,0.27-120.76,0.25-181.14,0.02c-6.37-0.02-8.6,1.29-8.49,8.16c0.52,33.93,0.36,67.88,0.68,101.82
			c0.14,15.05,1.59,16.7,16.63,16.87C-263.46,133.99-235.24,133.76-207.02,133.76z"/>
		<path class="st3" d="M-207.02,133.76c-28.22,0-56.44,0.23-84.66-0.09c-15.04-0.17-16.49-1.82-16.63-16.87
			c-0.32-33.94-0.16-67.88-0.68-101.82c-0.1-6.87,2.12-8.19,8.49-8.16c60.38,0.23,120.76,0.25,181.14-0.02
			c6.62-0.03,8.4,1.7,8.33,8.3c-0.4,34.65-0.48,69.31-0.27,103.96c0.06,10.18-2.21,15.33-14.29,14.9
			c-27.11-0.96-54.28-0.3-81.42-0.3C-207.01,133.68-207.01,133.72-207.02,133.76z"/>
	</g>
	<path class="st4" d="M97.56,11.94c6.65,0.34,13.31,0.58,19.96,1.04c6.21,0.42,9.76,3.3,10.31,9.45c1.22,13.62,0.75,27.3,0.15,40.95
		c-0.21,4.67-3.72,7.67-6.77,10.74c-15.6,15.74-31.22,31.46-46.82,47.19c-1.17,1.18-2.3,2.41-3.48,3.59
		c-7.99,8.02-13.1,8.4-21.3,0.46c-12.33-11.93-24.38-24.15-36.31-36.47c-6.06-6.26-5.81-12.19,0.39-18.38
		c17.1-17.06,34.33-34,51.46-51.04c4.58-4.56,9.69-7.33,16.43-6.89c5.31,0.34,10.65,0.07,15.98,0.07
		C97.55,12.41,97.56,12.17,97.56,11.94z M96.23,16.97c0-0.01,0-0.02,0-0.03c-4.33,0-8.71,0.41-12.97-0.09
		c-6.63-0.78-11.26,1.94-15.77,6.48C51.43,39.53,35.1,55.45,18.88,71.49c-1.18,1.17-2.35,2.36-3.43,3.62
		c-2.45,2.86-2.83,5.53-0.24,8.85c3.41,4.37,7.5,8.02,11.33,11.94c9.08,9.27,18.18,18.54,27.59,27.47
		c4.88,4.63,7.34,4.52,11.54,0.33c18.5-18.46,37.65-36.27,54.89-55.96c1.63-1.86,2.51-3.75,2.69-6.21
		c0.91-11.97,0.96-23.95,0.47-35.94c-0.26-6.35-2.13-8.31-8.51-8.56C108.89,16.78,102.56,16.97,96.23,16.97z"/>
	<path class="st5" d="M96.23,16.97c6.33,0,12.66-0.19,18.98,0.05c6.39,0.25,8.25,2.22,8.51,8.56c0.49,11.98,0.44,23.96-0.47,35.94
		c-0.19,2.45-1.06,4.34-2.69,6.21c-17.24,19.7-36.39,37.51-54.89,55.96c-4.2,4.19-6.65,4.3-11.54-0.33
		c-9.41-8.93-18.51-18.2-27.59-27.47c-3.83-3.91-7.93-7.56-11.33-11.94c-2.58-3.31-2.21-5.99,0.24-8.85
		c1.08-1.26,2.25-2.45,3.43-3.62C35.1,55.45,51.43,39.53,67.49,23.34c4.5-4.54,9.14-7.27,15.77-6.48c4.27,0.5,8.65,0.09,12.97,0.09
		C96.23,16.95,96.23,16.96,96.23,16.97z M115.42,35.3c-0.01-5.44-4.68-10.13-10.11-10.17c-5.23-0.04-10.08,4.92-10.06,10.28
		c0.02,5.66,4.84,10.2,10.68,10.07C111.02,45.37,115.43,40.64,115.42,35.3z"/>
	<path class="st4" d="M115.42,35.3c0.01,5.34-4.4,10.07-9.49,10.18c-5.84,0.13-10.66-4.41-10.68-10.07
		c-0.02-5.36,4.83-10.32,10.06-10.28C110.74,25.17,115.4,29.86,115.42,35.3z M105.03,29.82c-3.4,0.22-5.4,2.36-5.34,5.67
		c0.06,3.27,2.04,5.53,5.66,5.55c3.54,0.02,5.74-1.96,5.78-5.37C111.17,32.07,108.97,29.98,105.03,29.82z"/>
	<path class="st5" d="M105.03,29.82c3.94,0.16,6.14,2.25,6.1,5.85c-0.04,3.4-2.24,5.38-5.78,5.37c-3.62-0.02-5.6-2.28-5.66-5.55
		C99.63,32.18,101.64,30.03,105.03,29.82z"/>
</g>
<g id="Ebene_2">
	<path class="st6" d="M50.6,95.04c-2.74,2.84-5.81,4.24-9.2,4.18c-3.39-0.06-6.6-1.54-9.62-4.45c-2.53-2.44-4.22-5.14-5.06-8.09
		s-0.84-5.93-0.01-8.95c0.83-3.02,2.48-5.81,4.96-8.38c0.43-0.45,0.95-0.89,1.53-1.33c0.59-0.44,1.12-0.76,1.59-0.97
		c0.21-0.01,0.45,0.1,0.75,0.32c0.29,0.22,0.65,0.49,1.07,0.82c1.92-1.23,3.93-1.59,6.04-1.11c2.1,0.49,4.25,1.79,6.44,3.9
		c2.39,2.31,4.06,4.92,5,7.83c0.94,2.92,1.12,5.79,0.56,8.64C54.1,90.28,52.74,92.81,50.6,95.04z M47.36,91.41
		c1.14-1.18,1.75-2.6,1.84-4.25c0.09-1.66-0.28-3.41-1.12-5.25c-0.83-1.84-2.1-3.59-3.8-5.23c-3.89-3.75-7.44-3.95-10.65-0.62
		c-0.37,0.38-0.7,0.8-1,1.24c-0.3,0.45-0.58,0.95-0.84,1.5c0.21,2.01,0.84,4.01,1.9,6s2.3,3.67,3.72,5.05
		c1.8,1.74,3.61,2.75,5.42,3.02C44.65,93.15,46.16,92.66,47.36,91.41z M78.97,104.35c-0.47,0.49-1.01,0.89-1.62,1.21
		c-0.61,0.32-1.2,0.53-1.78,0.65c-1.63-4.91-3.46-10.2-5.51-15.86c-2.04-5.66-4.4-11.86-7.06-18.62
		c-2.66-6.75-5.75-14.17-9.28-22.26c-1.24-2.74-1.01-5,0.7-6.76c0.47-0.49,1-0.9,1.59-1.23c0.59-0.34,1.19-0.54,1.81-0.62
		c2.17,6.98,5.08,15.1,8.72,24.34c3.65,9.24,8.04,20.02,13.17,32.34C80.86,100.38,80.61,102.65,78.97,104.35z M102.02,78.78
		c-2.75,2.85-5.82,4.24-9.21,4.19c-3.39-0.06-6.6-1.54-9.62-4.45c-2.53-2.44-4.22-5.14-5.05-8.1c-0.84-2.95-0.84-5.93-0.01-8.95
		c0.83-3.02,2.49-5.81,4.96-8.38c0.43-0.45,0.95-0.9,1.53-1.33c0.59-0.44,1.12-0.76,1.59-0.97c0.21-0.01,0.45,0.1,0.75,0.32
		s0.65,0.49,1.07,0.82c1.92-1.23,3.93-1.59,6.04-1.11c2.1,0.49,4.25,1.79,6.44,3.9c2.39,2.31,4.06,4.92,5,7.83
		c0.94,2.92,1.12,5.79,0.57,8.63C105.51,74.03,104.16,76.56,102.02,78.78z M98.78,75.16c1.14-1.18,1.75-2.6,1.84-4.25
		c0.09-1.66-0.28-3.41-1.12-5.25c-0.83-1.84-2.1-3.59-3.8-5.23c-3.89-3.75-7.44-3.96-10.65-0.62c-0.37,0.38-0.7,0.8-1,1.24
		c-0.3,0.45-0.58,0.95-0.84,1.5c0.21,2.01,0.84,4.01,1.9,6s2.3,3.67,3.72,5.05c1.8,1.74,3.61,2.75,5.42,3.02
		C96.07,76.9,97.57,76.41,98.78,75.16z"/>
</g>
</svg>
