<?xml version="1.0" encoding="utf-8"?>
<!-- Generator: Adobe Illustrator 25.0.0, SVG Export Plug-In . SVG Version: 6.00 Build 0)  -->
<svg version="1.1" id="Ebene_1" xmlns="http://www.w3.org/2000/svg" xmlns:xlink="http://www.w3.org/1999/xlink" x="0px" y="0px"
	 viewBox="0 0 265 263" style="enable-background:new 0 0 265 263;" xml:space="preserve">
<style type="text/css">
	.st0{fill:#274063;}
	.st1{fill:#EFEFF1;}
	.st2{fill:#6BC3C4;}
</style>
<path class="st0" d="M131.19,255.76c-30.03,0-60.06,0.14-90.09-0.05c-21.69-0.14-35.2-11.43-35.67-32.92
	c-1.18-54.3-2.37-108.65,0.09-162.95c0.7-15.4,14.55-27.57,30.96-28.94c3.56-0.3,7.21-0.65,10.7-0.15c6.94,1,8.9-1.57,9.35-8.54
	C57.39,8.91,65.85,2.27,77.61,3.87c10.24,1.39,13.68,8.55,14.01,17.37c0.26,7.2,2.56,9.74,10.09,9.58
	c21.08-0.44,42.19-0.2,63.27,0.2c6.01,0.11,8.74-0.82,9.08-7.86c0.6-12.26,7.35-18.88,17.4-19.21c9.12-0.3,14.95,4.92,16.77,17.05
	c1.07,7.14,2.89,9.91,10.99,9.9c28.96-0.07,40.82,12.11,40.96,41.29c0.22,47.19,0.28,94.38-0.02,141.57
	c-0.2,31.6-11.41,42.23-43.16,42.24c-28.6,0.01-57.2,0-85.8,0C131.19,255.92,131.19,255.84,131.19,255.76z M130.13,245.69
	c0,0.13,0,0.27,0,0.41c29.64,0,59.3,0.35,88.93-0.11c24.38-0.38,31.38-7.29,31.79-31.45c0.79-47.13,1.13-94.28-0.29-141.41
	c-0.8-26.56-6.25-31.79-32.37-32.61c-6.21-0.2-9.11,0.84-8.84,7.88c0.3,7.89-2.75,14.71-10.34,18.5
	c-12.35,6.17-23.58-1.06-25.18-17.56c-0.75-7.69-3.34-9.18-10.33-9c-18.2,0.47-36.44,0.57-54.64,0
	c-10.26-0.33-17.9-0.02-17.23,13.72c0.39,7.93-5.74,12.95-13.3,14.66c-7.3,1.65-13.07-1.64-17.74-7.34
	c-3.65-4.46-4.46-9.54-4.57-15.01c-0.05-2.65,0.52-5.46-3.52-6.64c-14.34-4.19-30.01,2.8-35.9,16.39
	c-2.77,6.4-3.04,13.21-3.02,19.98c0.12,47.5,0.28,95.01,0.62,142.51c0.13,17.74,8.47,26.73,25.95,26.97
	C70.13,245.99,100.13,245.69,130.13,245.69z M182.39,36.77c0.02,6.02-0.39,12.08,2.23,17.8c1.32,2.88,3.65,4.36,6.53,4.86
	c3.45,0.6,5.54-1.81,6.35-4.51c3.53-11.76,4.2-23.71,0.3-35.51c-1-3.03-3.55-5.4-7.21-5.5c-4.05-0.11-5.23,3.03-6.35,6.05
	C182.22,25.39,182.14,31.07,182.39,36.77z M66.55,36.1c-0.25,0.01-0.5,0.01-0.76,0.02c0.23,4.97-0.05,10.04,0.85,14.88
	c0.84,4.54,4.2,7.26,9.1,7.58c5.22,0.34,5.7-4.17,6.22-7.19c1.69-9.86,1.83-19.86-0.28-29.71c-0.81-3.78-1.95-7.91-7.15-7.94
	c-5.65-0.04-7.15,4.42-7.82,8.52C65.98,26.76,66.55,31.47,66.55,36.1z"/>
<path class="st1" d="M130.13,245.69c-30,0-60,0.31-89.99-0.12c-17.48-0.25-25.83-9.23-25.95-26.97c-0.34-47.5-0.5-95-0.62-142.51
	c-0.02-6.77,0.25-13.57,3.02-19.98c5.89-13.59,21.56-20.58,35.9-16.39c4.04,1.18,3.47,3.98,3.52,6.64
	c0.11,5.47,0.92,10.55,4.57,15.01c4.67,5.7,10.44,8.99,17.74,7.34c7.56-1.71,13.69-6.73,13.3-14.66
	c-0.67-13.74,6.97-14.04,17.23-13.72c18.2,0.58,36.43,0.47,54.64,0c6.99-0.18,9.58,1.31,10.33,9c1.61,16.5,12.83,23.72,25.18,17.56
	c7.59-3.79,10.64-10.61,10.34-18.5c-0.27-7.04,2.64-8.08,8.84-7.88c26.12,0.82,31.57,6.06,32.37,32.61
	c1.42,47.13,1.08,94.28,0.29,141.41c-0.4,24.16-7.41,31.07-31.79,31.45c-29.64,0.46-59.29,0.11-88.93,0.11
	C130.13,245.96,130.13,245.82,130.13,245.69z M132.55,89.44c0-0.03,0-0.05,0-0.08c-30.02,0-60.04-0.05-90.06,0.02
	c-18.58,0.04-18.55,0.12-18.58,18.29c-0.05,35.74-0.4,71.47-0.08,107.21c0.14,16.02,4.77,19.83,20.67,20.2
	c55.39,1.28,110.78,1.45,166.18,0.75c26.37-0.33,29.38-3.12,30.74-29.25c0.07-1.43,0.1-2.86,0.09-4.29
	c-0.19-34.67-0.58-69.33-0.41-104c0.03-6.93-1.7-9.09-8.82-9.01C199.03,89.64,165.79,89.44,132.55,89.44z"/>
<path class="st1" d="M182.4,36.77c-0.25-5.7-0.18-11.38,1.85-16.81c1.12-3.02,2.3-6.16,6.35-6.05c3.65,0.1,6.2,2.47,7.21,5.5
	c3.9,11.81,3.23,23.75-0.3,35.51c-0.81,2.69-2.9,5.11-6.35,4.51c-2.89-0.5-5.21-1.98-6.53-4.86C182,48.85,182.41,42.79,182.4,36.77z
	"/>
<path class="st1" d="M66.55,36.1c0-4.63-0.57-9.34,0.17-13.85c0.67-4.09,2.17-8.56,7.82-8.52c5.2,0.04,6.34,4.16,7.15,7.94
	c2.11,9.85,1.98,19.86,0.28,29.71c-0.52,3.02-1,7.53-6.22,7.19c-4.9-0.32-8.27-3.04-9.1-7.58c-0.9-4.85-0.62-9.91-0.85-14.88
	C66.04,36.11,66.29,36.1,66.55,36.1z"/>
<path class="st0" d="M132.55,89.44c33.24,0,66.48,0.2,99.71-0.16c7.12-0.08,8.85,2.08,8.82,9.01c-0.17,34.66,0.22,69.33,0.41,104
	c0.01,1.43-0.02,2.86-0.09,4.29c-1.36,26.13-4.36,28.92-30.74,29.25c-55.4,0.69-110.79,0.53-166.18-0.75
	c-15.89-0.37-20.53-4.18-20.67-20.2c-0.31-35.73,0.03-71.47,0.08-107.21c0.03-18.17,0-18.25,18.58-18.29
	c30.02-0.06,60.04-0.02,90.06-0.02C132.55,89.39,132.55,89.41,132.55,89.44z M135.25,226.19c0-0.04,0-0.07,0-0.11
	c27.14,0,54.31-0.66,81.42,0.3c12.08,0.43,14.35-4.72,14.29-14.9c-0.2-34.65-0.13-69.31,0.27-103.96c0.08-6.61-1.7-8.33-8.33-8.3
	c-60.38,0.27-120.76,0.25-181.14,0.02c-6.37-0.02-8.6,1.29-8.49,8.16c0.52,33.93,0.36,67.88,0.68,101.82
	c0.14,15.05,1.59,16.7,16.63,16.87C78.8,226.42,107.03,226.19,135.25,226.19z"/>
<path class="st2" d="M135.25,226.19c-28.22,0-56.44,0.23-84.66-0.09c-15.04-0.17-16.49-1.82-16.63-16.87
	c-0.32-33.94-0.16-67.88-0.68-101.82c-0.1-6.87,2.12-8.19,8.49-8.16c60.38,0.23,120.76,0.25,181.14-0.02c6.62-0.03,8.4,1.7,8.33,8.3
	c-0.4,34.65-0.48,69.31-0.27,103.96c0.06,10.18-2.21,15.33-14.29,14.9c-27.11-0.96-54.28-0.3-81.42-0.3
	C135.25,226.12,135.25,226.15,135.25,226.19z"/>
</svg>
