<?xml version="1.0" encoding="utf-8"?>
<!-- Generator: Adobe Illustrator 25.0.0, SVG Export Plug-In . SVG Version: 6.00 Build 0)  -->
<svg version="1.1" id="Design" xmlns="http://www.w3.org/2000/svg" xmlns:xlink="http://www.w3.org/1999/xlink" x="0px" y="0px"
	 viewBox="0 0 1649.18 731.45" style="enable-background:new 0 0 1649.18 731.45;" xml:space="preserve">
<style type="text/css">
	.st0{display:none;fill-rule:evenodd;clip-rule:evenodd;}
	.st1{fill-rule:evenodd;clip-rule:evenodd;fill:#FFFFFF;}
	.st2{fill-rule:evenodd;clip-rule:evenodd;fill:#FBB040;}
	.st3{fill:#FBB040;}
</style>
<rect x="-963.53" y="-1027.4" class="st0" width="4000" height="3000"/>
<path class="st1" d="M297,531.2h-75.8c-6.18,0-11.23-5.05-11.23-11.23V270.11c0-6.18,5.05-11.23,11.23-11.23H297v-57.83h-87.03
	c-32.01,0-57.84,25.83-57.84,57.83V531.2c0,32.01,25.83,57.83,57.84,57.83H297V531.2L297,531.2z M716.15,164.37
	c-16.88,0-31.8-8.36-40.87-21.15H94.31v503.65h485.12V201.05h57.27l57.84,197.64l57.83,190.34h-57.27l-57.83-190.34v248.17v57.83
	H94.31H36.48v-57.83V143.21V85.38h57.83h580.97c9.07-12.8,23.99-21.16,40.87-21.16c27.65,0,50.07,22.42,50.07,50.07
	C766.22,141.95,743.81,164.37,716.15,164.37L716.15,164.37z M347.54,258.88V531.2c0,32.01,25.83,57.83,57.83,57.83h58.39
	c32,0,57.83-25.82,57.83-57.83V258.88c0-32-25.83-57.83-57.83-57.83h-58.39C373.37,201.05,347.54,226.88,347.54,258.88
	L347.54,258.88z M452.53,531.2c6.17,0,11.23-5.05,11.23-11.23V270.11c0-6.18-5.06-11.23-11.23-11.23H416.6
	c-6.17,0-11.23,5.05-11.23,11.23v249.86c0,6.17,5.05,11.23,11.23,11.23H452.53z"/>
<path class="st2" d="M1053.33,1342.19c-1.7-6.37-3.89-12.95-3.22-20.46c-6.97-0.17-8.94,2.11-13.46,6.3
	c-1.26,1.16-2.4,2.08-3.59,3.25c-0.62,0.61-0.83,1.04-1.42,1.68c-0.6,0.66-1.18,0.93-1.83,1.57c-1.19,1.16-2.17,2.29-3.34,3.49
	c-3.88,4-16.92,17.08-19.64,20.39c-9.36,11.34-13.93,25.58-11.55,40.86c2.37,15.23,8.41,24.85,19.46,33.92
	c4.86,3.99,10.75,6.99,17.98,9.01c18.43,5.15,37.79-0.43,50.24-12.34l13.34-13.34c2.37-2.31,4.47-4.5,6.8-6.85
	c7.09-7.14,20.74-19.64,25.46-27.93c14.55-25.52,2.83-61.21-23.89-70.46c-8.09-2.8-13.62-1.66-17.38,6.51
	c-1.45,3.15-2.42,7.86,0.24,10.32c3.24,2.99,10.36,1.68,16.22,7.37c8.32,8.07,12.23,20.61,7.6,32.14
	c-3.16,7.89-7.11,10.02-11.66,15.05c-4.36,4.82-8.94,9.06-13.41,13.58l-9.92,9.94c-0.7,0.65-0.91,1.1-1.58,1.83
	c-0.56,0.6-1.13,1.11-1.74,1.67c-4.62,4.24-7.83,8.48-15.53,11.18c-14.45,5.06-29.36-0.72-37.04-13.28
	c-8.54-13.97-3.57-30.66,5.96-38.62c1.18-0.99,2.18-2.2,3.23-3.28c1.2-1.23,2.3-2.06,3.45-3.36c4.11-4.66,8.93-9.02,13.24-13.48
	c1.36-1.4,2.08-2.19,3.4-3.41L1053.33,1342.19L1053.33,1342.19z M1121.07,1271.02c-2.37,2.32-4.58,4.75-6.76,6.82
	c-3.75,3.57-13.85,13.51-17.27,17.5l-10.39,10.08c-11.3,10.8-9.51,30.55,2.15,41.27c6.62,6.08,13.1,5.47,15.93,7.98
	c4.94,4.38-0.87,16.85-6.3,18.05c-6.96,1.53-16.36-4.05-20.33-6.93c-5.1-3.69-9.37-8.46-12.89-14.42
	c-7.38-12.5-9.8-29.03-3.91-44.61c2.66-7.04,6.8-12.02,11.04-16.59c7.26-7.82,19.99-20.34,27.51-27.73
	c5.3-5.2,7.13-8.29,14.06-13.57 M1315.91,1414.86c9.76-7.46,26.68-13.47,43.01-9.4c13.76,3.43,25.32,10.75,32.84,22.39
	c9.77,15.14,12.12,36.96,2.04,54.03c-3.24,5.48-5.15,7.51-8.96,11.84c-2.53,2.87-2.57,2.18-5.06,5.17c-1.33,1.6-3.87,3.59-5.19,5.04
	c-3.65,3.97-14.68,15.43-18.93,18.93c-3.27,2.69-6.13,5.62-11.49,5.88c0.69-4.09,0.27-9.55-0.29-13.56
	c-1.22-8.65-2.82-7.35-0.02-10.3l20.6-20.99c7.01-7.16,14.2-13.12,14.05-27.25c-0.25-24.65-27.34-38.1-47.84-25.79
	c-2.77,1.66-5.26,3.86-7.6,6.15"/>
<g>
	<line class="st3" x1="804.23" y1="368.54" x2="782.34" y2="296.28"/>
	<polyline class="st3" points="782.34,296.28 753.49,201.05 695.66,201.05 695.09,201.05 752.93,391.95 810.76,589.03 
		869.15,589.03 869.15,143.21 1557.64,143.21 1557.64,646.86 868.52,646.86 868.72,620.45 809.82,677.08 867.89,731.45 
		868.09,704.69 1557.64,704.69 1615.47,704.69 1615.47,646.86 1615.47,143.21 1615.47,85.38 1557.64,85.38 811.32,85.38 
		811.32,143.21 811.32,391.95 804.23,368.54 	"/>
	<polygon class="st3" points="1071.85,258.88 1071.85,201.05 926.98,201.05 926.98,589.03 1071.85,589.03 1071.85,531.2 
		984.82,531.2 984.82,423.96 1071.85,423.96 1071.85,366.13 984.82,366.13 984.82,258.88 	"/>
	<polygon class="st3" points="1440.74,589.03 1440.74,258.88 1499.13,258.88 1499.13,201.05 1325.07,201.05 1325.07,258.88 
		1382.9,258.88 1382.9,589.03 	"/>
	<path class="st3" d="M1198.74,258.88h75.8v-57.83h-87.03c-32,0-57.84,25.83-57.84,57.83V531.2c0,32.01,25.83,57.83,57.84,57.83
		h87.03V531.2h-75.8c-6.18,0-11.23-5.05-11.23-11.23V270.11C1187.51,263.93,1192.56,258.88,1198.74,258.88z"/>
</g>
<circle class="st3" cx="715.77" cy="114.44" r="48.45"/>
<circle class="st3" cx="738.59" cy="666.95" r="48.45"/>
<path class="st2" d="M1113.08,1246.64c9.76-7.45,26.68-13.47,43.01-9.4c13.76,3.43,25.32,10.75,32.84,22.39
	c9.77,15.14,12.12,36.96,2.04,54.03c-3.24,5.48-5.15,7.51-8.96,11.84c-2.53,2.87-2.57,2.18-5.06,5.17c-1.33,1.6-3.87,3.6-5.19,5.04
	c-3.65,3.97-14.68,15.43-18.93,18.93c-3.26,2.69-6.13,5.62-11.48,5.88c0.69-4.09,0.27-9.55-0.29-13.56
	c-1.22-8.65-2.82-7.35-0.02-10.3l20.6-20.99c7.01-7.16,14.2-13.12,14.05-27.25c-0.25-24.65-27.34-38.1-47.84-25.79
	c-2.77,1.66-5.26,3.86-7.6,6.15"/>
</svg>
