<?xml version="1.0" encoding="utf-8"?>
<!-- Generator: Adobe Illustrator 25.0.0, SVG Export Plug-In . SVG Version: 6.00 Build 0)  -->
<svg version="1.1" id="Ebene_1" xmlns="http://www.w3.org/2000/svg" xmlns:xlink="http://www.w3.org/1999/xlink" x="0px" y="0px"
	 viewBox="0 0 127.74 128.39" style="enable-background:new 0 0 127.74 128.39;" xml:space="preserve">
<style type="text/css">
	.st0{fill:#263F62;}
	.st1{fill:#65C8C7;}
	.st2{fill:#EFEFF1;}
</style>
<path class="st0" d="M4.52,51.49C4.24,32.5,17.46,14.27,36.08,7.98c19.6-6.62,39.47-0.61,51.3,15.18
	c11.58,15.45,13.15,31.91,5.46,49.36c-1.29,2.92-0.98,4.6,1.31,6.79c7.22,6.9,14.22,14.04,21.24,21.15c1.86,1.89,3.65,3.9,5.18,6.05
	c3.08,4.32,2.63,10.18-0.84,13.75c-3.14,3.23-9.22,3.85-13.37,0.83c-3.21-2.33-6.08-5.17-8.88-8.01
	c-6.32-6.4-12.48-12.95-18.74-19.4c-1.81-1.87-3.45-2.83-6.44-1.27c-28.19,14.66-55.41-0.86-65.02-25.31
	C5.33,62.17,4.34,56.89,4.52,51.49z M51.21,9.62c-2.89-0.2-5.66,0.39-8.42,1.03C23.48,15.09,9.77,30.73,8.75,49.44
	C7.77,67.57,20.93,86.13,38.94,92.03C51.29,96.07,62.6,92.53,73.5,87c2.72-1.38,4.17-1.13,6.2,1.03c8.9,9.44,17.95,18.75,27.05,28
	c2.79,2.83,6,4.27,9.62,0.99c3.84-3.49,1.83-6.45-0.68-9.46c-8.1-9.76-17.55-18.21-26.61-27.02c-3.14-3.05-3.7-5.19-1.27-9.11
	c8.77-14.14,6.96-28.46-1.3-41.96C78.6,16.51,66.45,10.02,51.21,9.62z"/>
<path class="st1" d="M122.32,51.61c-0.67,1.53-1.89,1.76-3.31,1.39c-2.75-0.72-5.58-1.51-7.63-3.51c-2.12-2.08-3.73-2.1-5.86-0.09
	c-1.35,1.27-3.76,2.17-4.96,0.69c-1.55-1.91,1.04-3.12,2.16-4.28c5.21-5.42,5.31-5.42,11.02-0.17c1.8,1.66,4.05,2.2,6.12,3.23
	C121,49.42,122.41,49.88,122.32,51.61z"/>
<path class="st1" d="M118.29,66.6c-0.8-0.26-2.34-0.48-3.58-1.21c-3.89-2.29-7.52-5.88-12.1-1.11c-0.58,0.6-2.06,0.58-2.72-0.33
	c-0.69-0.95,0.1-1.87,0.64-2.69c3.07-4.7,7.59-5.62,11.91-2.39c2.3,1.72,5.03,2.48,7.62,3.57c1.24,0.53,2.72,1.18,2.31,2.76
	C121.95,66.81,120.26,66.44,118.29,66.6z"/>
<path class="st2" d="M51.21,9.62c15.25,0.41,27.39,6.89,35.31,19.85c8.25,13.5,10.07,27.82,1.3,41.96
	c-2.43,3.91-1.86,6.06,1.27,9.11c9.06,8.81,18.51,17.25,26.61,27.02c2.5,3.02,4.52,5.97,0.68,9.46c-3.62,3.29-6.83,1.85-9.62-0.99
	c-9.1-9.25-18.15-18.56-27.05-28c-2.04-2.16-3.48-2.41-6.2-1.03c-10.9,5.53-22.21,9.07-34.56,5.03
	C20.93,86.13,7.77,67.57,8.75,49.44c1.01-18.71,14.73-34.35,34.04-38.79C45.54,10.01,48.32,9.42,51.21,9.62z M15.29,51.19
	c-0.01,21.22,15.43,36.43,37.05,36.51c18.4,0.07,34.7-16.6,34.7-35.49c0.01-20.3-15.87-36.54-35.7-36.51
	C31.24,15.72,15.3,31.41,15.29,51.19z"/>
<path class="st0" d="M15.29,51.19c0.01-19.77,15.95-35.47,36.06-35.49c19.83-0.03,35.71,16.21,35.7,36.51
	c-0.01,18.89-16.31,35.55-34.7,35.49C30.72,87.61,15.28,72.41,15.29,51.19z M82.71,50.9c-0.45-18.65-15.61-31.2-32.03-30.84
	c-18.26,0.41-31.89,15.08-31.07,32.29c0.86,17.93,15.23,31.57,32.54,30.9C69.57,82.56,83.47,67.85,82.71,50.9z"/>
<path class="st2" d="M82.71,50.9c0.76,16.95-13.14,31.66-30.57,32.34c-17.31,0.68-31.68-12.97-32.54-30.9
	c-0.82-17.2,12.82-31.88,31.07-32.29C67.1,19.69,82.26,32.25,82.71,50.9z M77.77,52.23c-0.15-0.71-0.12-1.1-0.31-1.33
	c-2.46-3.05-6.45-4.13-9.08-6.91c-2.17-2.3-3.62-2.19-6.1-0.13c-7.96,6.61-10.65,6.52-19.11,0.56c-0.95-0.67-1.92-1.33-2.9-1.96
	c-0.87-0.56-1.87-1.07-2.72-0.15c-2.77,3.01-6.63,4.43-9.77,6.88c-0.99,0.77-2.49,1.64-1.7,3.18c0.78,1.52,2.31,1.02,3.54,0.45
	c2.11-0.99,4.44-1.76,6.16-3.23c2.54-2.17,4.38-1.68,6.94,0c6.57,4.32,13.32,5.04,19.78-0.39c2.02-1.7,3.62-1.4,5.74,0.04
	C70.94,51.07,73.85,52.92,77.77,52.23z M29.61,66.32c1.86-0.89,4.38-1.83,6.61-3.23c2.58-1.62,4.75-1.68,7.31,0.1
	c5.13,3.57,10.69,3.5,16.06,0.72c3.94-2.04,7.48-4.25,11.41,0.02c0.7,0.76,2.52,0.75,3.79,0.63c1.46-0.13,1.83-1.24,1.17-2.58
	c-1.8-3.63-10.62-6.41-14.06-4.06c-6.8,4.64-13.25,4.54-19.72-0.48c-1.28-0.99-2.52-2.14-4.43-0.93c-3.37,2.13-6.86,4.06-10.3,6.09
	c-0.88,0.52-1.81,1.18-1.38,2.33C26.53,66.18,27.73,66.41,29.61,66.32z"/>
<path class="st1" d="M77.77,52.23c-3.93,0.69-6.83-1.16-9.53-2.99c-2.12-1.44-3.72-1.73-5.74-0.04c-6.46,5.43-13.21,4.71-19.78,0.39
	c-2.56-1.68-4.4-2.17-6.94,0c-1.72,1.47-4.06,2.25-6.16,3.23c-1.23,0.57-2.75,1.07-3.54-0.45c-0.79-1.54,0.71-2.41,1.7-3.18
	c3.14-2.45,7-3.87,9.77-6.88c0.85-0.92,1.85-0.41,2.72,0.15c0.98,0.63,1.95,1.28,2.9,1.96c8.47,5.96,11.15,6.05,19.11-0.56
	c2.49-2.06,3.93-2.17,6.1,0.13c2.62,2.78,6.62,3.86,9.08,6.91C77.65,51.13,77.62,51.53,77.77,52.23z"/>
<path class="st1" d="M29.61,66.32c-1.87,0.09-3.08-0.14-3.55-1.39c-0.43-1.15,0.5-1.81,1.38-2.33c3.43-2.03,6.93-3.96,10.3-6.09
	c1.92-1.21,3.16-0.06,4.43,0.93c6.47,5.02,12.92,5.12,19.72,0.48c3.44-2.35,12.26,0.44,14.06,4.06c0.66,1.33,0.29,2.44-1.17,2.58
	c-1.26,0.11-3.09,0.13-3.79-0.63c-3.93-4.26-7.47-2.05-11.41-0.02c-5.37,2.78-10.93,2.84-16.06-0.72c-2.56-1.78-4.73-1.72-7.31-0.1
	C33.99,64.49,31.47,65.43,29.61,66.32z"/>
</svg>
