<?xml version="1.0" encoding="utf-8"?>
<!-- Generator: Adobe Illustrator 25.0.0, SVG Export Plug-In . SVG Version: 6.00 Build 0)  -->
<svg version="1.1" id="Ebene_1" xmlns="http://www.w3.org/2000/svg" xmlns:xlink="http://www.w3.org/1999/xlink" x="0px" y="0px"
	 viewBox="0 0 121.29 138.06" style="enable-background:new 0 0 121.29 138.06;" xml:space="preserve">
<style type="text/css">
	.st0{fill:#263F62;}
	.st1{fill:#65C8C7;}
	.st2{fill:#EFEFF1;}
</style>
<path class="st0" d="M55.87,131.23c-12.39,0.33-27.52-3.55-42.36-8.7c-7.98-2.77-10.1-7.5-7.71-15.68
	c2.63-9.04,8.18-15.47,17.04-18.92c5.12-1.99,10.24-3.98,15.3-6.1c4.4-1.84,6.24-6.87,3.88-10.98c-3.22-5.63-6.53-11.23-10.12-16.63
	c-2.24-3.37-3.19-6.81-1.16-10.27c1.68-2.86,1.49-5.56,1.17-8.56c-1.46-14.05,5.06-24.18,18.68-29.3
	c10.95-4.11,25.78,0.23,32.97,9.52c4.51,5.84,5.04,12.52,4.43,19.46c-0.27,2.99-0.37,5.69,1.01,8.67c2.09,4.52,0.47,9.02-2.83,12.4
	c-4.59,4.7-5.58,11.23-9.05,16.53c-1.7,2.61,0.14,6.36,3.37,8.42c4.98,3.17,10.53,4.96,16.06,6.78
	c10.06,3.3,15.41,10.68,17.79,20.48c1.79,7.39-0.08,10.73-7.19,13.68C91.89,128.39,75.85,130.9,55.87,131.23z M60.39,126.93
	c3.51,0.39,8.49-0.38,13.41-1.08c11.68-1.66,23.32-3.66,34.1-8.89c1.77-0.86,3.01-1.64,2.66-4.03c-1.3-8.91-4.86-16.28-13.49-20.16
	c-4.24-1.91-8.72-3.25-12.96-5.14c-2.75-1.23-4.54-0.94-6.92,1.18c-9.07,8.11-22.48,9.84-30.6,2.5c-6.09-5.5-11-4.68-17.03-1.57
	c-1.77,0.91-3.66,1.58-5.51,2.35c-7.05,2.93-11.64,7.93-13.72,15.4c-1.89,6.78-1.24,8.72,5.16,11.07
	C29.48,123.7,43.95,126.49,60.39,126.93z M47,29.53c-1.92-0.86-2.82,0.94-3.97,3.02c-1.96,3.55-1.75,8.57-5.8,10.6
	c-3.68,1.84-3.4,4.31-2,6.94c3.44,6.44,6.7,13.07,10.93,18.98c6.13,8.56,20.02,11.66,28.03-0.7c1.53-2.37,3.09-4.79,4.1-7.39
	c1.1-2.84,2.3-5.4,4.64-7.49c3.28-2.94,3.48-6.4,0.42-9.61c-3.54-3.71-5.97-7.9-7.18-12.9c-0.64-2.67-2.34-3.89-5.22-2.81
	C63.42,30.98,55.71,31.39,47,29.53z M35.87,37.69c1.42-2.88,2.42-4.92,3.41-6.95c1.89-3.87,4.9-5.65,9.26-5.15
	c7.81,0.89,15.54,0.96,23.15-1.65c3.93-1.35,6.77,0.37,8.14,4.37c1,2.9,2.07,5.78,3.1,8.66c0.89-4.09,0.91-7.99-0.08-11.86
	C79.63,12.34,62.66,4.64,50.82,10.62c-3.4,1.72-5.5,5.11-9.05,6.81c-4.09,1.96-5.77,5.81-5.89,10.27
	C35.81,30.67,35.87,33.67,35.87,37.69z M46.81,76.31c0.51,3.8-3.91,6.05-1.14,9.4c5.77,6.97,22.87,7.12,28.78,0.34
	c2.78-3.19-0.89-5.46-1.29-8.19c-0.25-1.67-1.79-0.8-2.78-0.19C62.7,82.36,55.18,81.22,46.81,76.31z"/>
<path class="st1" d="M60.39,126.93c-16.44-0.44-30.91-3.23-44.91-8.37c-6.39-2.35-7.05-4.29-5.16-11.07
	c2.08-7.47,6.67-12.47,13.72-15.4c1.84-0.76,3.74-1.43,5.51-2.35c6.03-3.11,10.94-3.93,17.03,1.57c8.12,7.34,21.52,5.61,30.6-2.5
	c2.38-2.12,4.17-2.41,6.92-1.18c4.24,1.89,8.73,3.24,12.96,5.14c8.63,3.88,12.19,11.25,13.49,20.16c0.35,2.4-0.89,3.18-2.66,4.03
	c-10.78,5.23-22.41,7.23-34.1,8.89C68.88,126.55,63.91,127.32,60.39,126.93z"/>
<path class="st2" d="M47,29.53c8.71,1.86,16.42,1.45,23.94-1.35c2.89-1.08,4.58,0.14,5.22,2.81c1.21,4.99,3.64,9.19,7.18,12.9
	c3.05,3.2,2.86,6.67-0.42,9.61c-2.34,2.09-3.53,4.66-4.64,7.49c-1.01,2.6-2.57,5.03-4.1,7.39c-8,12.37-21.89,9.26-28.03,0.7
	c-4.23-5.91-7.49-12.54-10.93-18.98c-1.41-2.63-1.69-5.1,2-6.94c4.05-2.03,3.84-7.05,5.8-10.6C44.18,30.46,45.08,28.67,47,29.53z"/>
<path class="st2" d="M35.87,37.69c0-4.03-0.06-7.02,0.02-10.01c0.12-4.46,1.79-8.3,5.89-10.27c3.54-1.7,5.65-5.09,9.05-6.81
	c11.84-5.98,28.81,1.72,32.05,14.49c0.98,3.88,0.96,7.78,0.08,11.86c-1.04-2.89-2.11-5.76-3.1-8.66c-1.37-4-4.22-5.72-8.14-4.37
	c-7.62,2.62-15.34,2.55-23.15,1.65c-4.36-0.5-7.37,1.28-9.26,5.15C38.29,32.78,37.29,34.81,35.87,37.69z"/>
<path class="st2" d="M46.81,76.31c8.37,4.92,15.89,6.05,23.57,1.36c0.99-0.61,2.54-1.48,2.78,0.19c0.4,2.73,4.07,5,1.29,8.19
	c-5.91,6.78-23.01,6.63-28.78-0.34C42.9,82.36,47.32,80.11,46.81,76.31z"/>
</svg>
