<?xml version="1.0" encoding="utf-8"?>
<!-- Generator: Adobe Illustrator 25.0.0, SVG Export Plug-In . SVG Version: 6.00 Build 0)  -->
<svg version="1.1" id="Ebene_1" xmlns="http://www.w3.org/2000/svg" xmlns:xlink="http://www.w3.org/1999/xlink" x="0px" y="0px"
	 viewBox="0 0 127.74 128.39" style="enable-background:new 0 0 127.74 128.39;" xml:space="preserve">
<style type="text/css">
	.st0{fill:#263F62;}
	.st1{fill:#65C8C7;}
	.st2{fill:#EFEFF1;}
</style>
<path class="st0" d="M93.41,109.27c-6.09,4.23-11.85,8.17-17.55,12.19c-3.31,2.33-4.16,0.55-4.89-2.47
	c-0.6-2.48,1.45-5.96-1.25-7.26c-2.16-1.04-5.22-0.21-7.89-0.2c-7.5,0.03-15,0.3-22.48,0.03c-11.31-0.42-19.78-5.51-24.04-16.32
	c-4.07-10.33-1.83-19.61,5.6-27.66c3.88-4.21,8.96-6.34,14.59-6.86c15.79-1.45,31.61-0.35,47.42-0.26c4.68,0.03,9.37,0.31,13.75-1.6
	c7.69-3.36,12.72-12.07,11.85-20.18c-1.02-9.56-6.82-16.03-16.05-17.95c-3.95-0.82-7.94-0.74-11.94-0.74
	c-15.16,0.03-30.31,0.1-45.47-0.02c-3.25-0.03-5.26,0.42-6.77,3.94c-2.84,6.61-7.57,8.98-13.84,8.15
	C8.17,31.22,3.55,26.99,2.02,20.67C0.4,13.96,3.85,7.77,10.63,5.21c7.59-2.86,14.45-0.76,17.23,6.11c1.64,4.06,3.94,4.7,7.82,4.65
	c17.49-0.25,34.98-0.38,52.47-0.16c19.91,0.24,31.25,20.8,21.04,37.92c-4.98,8.35-13.2,10.89-22.21,10.98
	c-13.48,0.15-26.97-0.17-40.46-0.33c-8.23-0.1-16.35-0.14-22.68,6.55c-6.31,6.66-7.66,14.37-4.55,22.63
	c2.99,7.94,9.04,12.44,17.7,13.27c9.98,0.96,19.97,0.51,29.96,0.51c3.27,0,4.43-1.07,4.18-4.32c-0.18-2.24-0.89-5.37,1.36-6.4
	c2-0.92,4.34,1.12,6.24,2.4C83.56,102.26,88.28,105.67,93.41,109.27z M15.63,8.53c-5.31-0.07-9.54,4.01-9.69,9.34
	c-0.15,5.3,4.28,9.81,9.77,9.96c5.35,0.15,9.87-4.29,9.89-9.73C25.63,12.66,21.41,8.61,15.63,8.53z M76.02,102.56
	c0,4.84,0,8.93,0,13.67c3.51-2.53,6.45-4.64,9.65-6.95C82.29,106.93,79.45,104.95,76.02,102.56z"/>
<path class="st1" d="M85.32,75.91c1.8,4.03,4.5,6.77,8.58,8.07c1.38,0.44,3.11,1.23,2.46,3.14c-0.58,1.7-2.74,2.23-3.77,1.42
	c-5.81-4.57-11.2-2.73-17.08-0.04c-2.62,1.2-6.03,0.24-8.38-2c-2.38-2.27-4.35-1.98-6.98-0.19C54.9,89.9,49.4,89.76,44.43,85.7
	c-2.13-1.74-3.66-1.88-5.39,0.2c-0.1,0.12-0.25,0.22-0.4,0.3c-2.43,1.21-5.73,4.12-7.43,1.44c-1.97-3.09,2.6-3.65,4.49-5.13
	c1.04-0.81,2.51-1.2,2.96-2.56c1.55-4.56,3.56-3.11,5.98-0.69c7.85,7.85,8.34,7.81,16.1,0.07c1.56-1.55,3.06-2.36,5.13-0.48
	c8.82,8,10.09,7.86,17.83-1.44C84.12,76.94,84.63,76.55,85.32,75.91z"/>
<path class="st1" d="M96.61,43.78c-0.15,2.12-2.06,2.32-2.87,1.75c-6.26-4.35-12.27-2.65-18.48,0.09c-1.57,0.69-3.77,0.38-5.3-0.72
	c-4.31-3.09-8.25-3.43-12.86-0.14c-3.23,2.3-7.34,1.25-10.35-0.94c-3.25-2.36-5.88-2.47-8.78,0.13c-0.12,0.11-0.28,0.19-0.44,0.23
	c-2.12,0.5-4.79,2.86-6.21,0.19c-0.95-1.79,2.28-2.72,3.68-3.94c1.74-1.52,3.87-2.59,4.92-4.82c1.18-2.51,2.69-1.99,4.22-0.36
	c0.56,0.6,0.95,1.36,1.47,2.01c4.59,5.66,8.88,6,13.63,0.55c2.61-3,4.33-3.65,7.48-0.58c6.43,6.25,9.09,6.1,15.29-0.41
	c2.5-2.62,4.28-2.73,6.25,0.29c1.23,1.9,3.17,2.87,5.15,3.78C94.8,41.52,95.94,42.43,96.61,43.78z"/>
<path class="st0" d="M125.04,110.13c-0.09,7.8-6.36,13.84-14.17,13.63c-7.77-0.2-13.83-6.49-13.71-14.21
	c0.12-7.46,6.64-13.74,14.31-13.8C118.85,95.71,125.12,102.35,125.04,110.13z M110.83,100.51c-5.14-0.01-9.14,3.96-9.2,9.11
	c-0.06,5.32,4.07,9.44,9.43,9.41c5.36-0.03,9.58-4.18,9.54-9.38C120.56,104.54,116.27,100.52,110.83,100.51z"/>
<path class="st1" d="M15.63,8.53c5.78,0.08,10,4.13,9.98,9.57c-0.02,5.43-4.54,9.87-9.89,9.73c-5.49-0.15-9.92-4.66-9.77-9.96
	C6.09,12.54,10.32,8.46,15.63,8.53z"/>
<path class="st2" d="M76.02,102.56c3.43,2.39,6.27,4.37,9.65,6.72c-3.21,2.31-6.14,4.42-9.65,6.95
	C76.02,111.49,76.02,107.4,76.02,102.56z"/>
<path class="st1" d="M110.83,100.51c5.43,0.01,9.73,4.03,9.77,9.15c0.04,5.2-4.18,9.34-9.54,9.38c-5.36,0.03-9.49-4.09-9.43-9.41
	C101.69,104.47,105.7,100.5,110.83,100.51z"/>
</svg>
